<?xml version="1.0" standalone="no"?>
<!DOCTYPE svg PUBLIC "-//W3C//DTD SVG 1.1//EN" "http://www.w3.org/Graphics/SVG/1.1/DTD/svg11.dtd" >
<svg>
<metadata>
Created by FontForge 20090622 at Thu Apr 14 23:52:14 2016
 By deploy user
Copyright 1990-2003 Bitstream Inc. All rights reserved.
</metadata>
<defs>
<font id="Humanist521BT-BoldItalic" horiz-adv-x="1024" >
  <font-face 
    font-family="Humanst521 BT"
    font-weight="700"
    font-style="italic"
    font-stretch="normal"
    units-per-em="2048"
    panose-1="2 11 7 2 2 2 4 9 2 4"
    ascent="1556"
    descent="-492"
    x-height="948"
    cap-height="1399"
    bbox="-342 -483 2888 1972"
    underline-thickness="193"
    underline-position="-135"
    slope="-8.5"
    unicode-range="U+0020-U+F002"
  />
<missing-glyph horiz-adv-x="1229" 
d="M102 -362v1806h1024v-1806h-1024zM217 -248h795v1577h-795v-1577z" />
    <glyph glyph-name=".notdef" horiz-adv-x="1229" 
d="M102 -362v1806h1024v-1806h-1024zM217 -248h795v1577h-795v-1577z" />
    <glyph glyph-name=".null" horiz-adv-x="0" 
 />
    <glyph glyph-name="nonmarkingreturn" horiz-adv-x="547" 
 />
    <glyph glyph-name="space" unicode=" " horiz-adv-x="547" 
 />
    <glyph glyph-name="exclam" unicode="!" horiz-adv-x="672" 
d="M201 441q11 192 23.5 442.5t17.5 287.5q15 130 59 191t121 61q64 0 99.5 -43t35.5 -120q0 -81 -130 -594l-56 -226zM78 143q0 70 49 119t119 49t119 -49t49 -119q0 -69 -49 -118.5t-119 -49.5t-119 49.5t-49 118.5z" />
    <glyph glyph-name="quotedbl" unicode="&#x22;" horiz-adv-x="678" 
d="M406 1438h192v-559h-192v559zM80 1438h192v-559h-192v559z" />
    <glyph glyph-name="numbersign" unicode="#" horiz-adv-x="1575" 
d="M709 848l-88 -244h251l86 244h-249zM709 1464h221l-146 -415h242l148 415h221l-148 -415h283l-74 -201h-280l-84 -242h290l-71 -200h-291l-148 -416h-221l148 416h-244l-149 -416h-220l146 416h-287l76 200h282l86 242h-299l74 201h297z" />
    <glyph glyph-name="dollar" unicode="$" horiz-adv-x="1096" 
d="M496 907l40 264q-62 -4 -99.5 -38t-37.5 -86q0 -45 24.5 -80t72.5 -60zM547 242q60 7 99.5 48t39.5 97q0 45 -25.5 80.5t-72.5 56.5zM18 133l39 242q101 -61 184.5 -94.5t155.5 -40.5l58 383q-149 68 -224 168.5t-75 228.5q0 168 113.5 272.5t299.5 106.5l21 141h147
l-22 -151q68 -11 138.5 -39t145.5 -74l-30 -219q-79 51 -150 78.5t-135 31.5l-51 -336q159 -77 233 -174.5t74 -230.5q0 -185 -117.5 -299t-314.5 -119l-37 -248h-145l36 248q-69 5 -154.5 36t-189.5 89z" />
    <glyph glyph-name="percent" unicode="%" horiz-adv-x="1991" 
d="M440 -25l944 1446h168l-948 -1446h-164zM1331 391q0 -80 55.5 -135t135.5 -55q79 0 134.5 55.5t55.5 134.5q0 80 -55 135.5t-135 55.5t-135.5 -55.5t-55.5 -135.5zM1104 391q0 175 121.5 296.5t296.5 121.5q174 0 295.5 -121.5t121.5 -296.5q0 -173 -122 -294.5
t-295 -121.5q-175 0 -296.5 121t-121.5 295zM279 1004q0 -80 55 -135.5t135 -55.5q79 0 134.5 55.5t55.5 135.5q0 79 -55 134.5t-135 55.5t-135 -55.5t-55 -134.5zM51 1004q0 175 121.5 296t296.5 121q174 0 296 -121.5t122 -295.5t-122 -295t-296 -121q-175 0 -296.5 121
t-121.5 295z" />
    <glyph glyph-name="ampersand" unicode="&#x26;" horiz-adv-x="1518" 
d="M606 877q106 52 159.5 111.5t53.5 125.5q0 58 -39 97.5t-96 39.5q-66 0 -109 -47t-43 -121q0 -43 18 -93.5t56 -112.5zM741 289q-65 60 -129 136t-131 173q-87 -37 -133.5 -93t-46.5 -122q0 -81 51.5 -132.5t132.5 -51.5q61 0 126 22.5t130 67.5zM942 453
q49 47 82.5 95.5t52.5 100.5h244q-31 -98 -84.5 -183t-128.5 -155q61 -44 126 -66t140 -24l-82 -231q-6 0 -17 -1t-18 -1q-84 0 -170.5 36t-177.5 109q-121 -81 -229.5 -119.5t-214.5 -38.5q-185 0 -300.5 108t-115.5 277q0 131 80.5 232.5t247.5 181.5q-43 78 -64.5 147.5
t-21.5 127.5q0 164 111 269t284 105q153 0 253.5 -88.5t100.5 -222.5q0 -117 -83 -219t-246 -184q55 -78 112.5 -141.5t118.5 -114.5z" />
    <glyph glyph-name="quotesingle" unicode="'" horiz-adv-x="352" 
d="M80 1438h192v-559h-192v559z" />
    <glyph glyph-name="parenleft" unicode="(" horiz-adv-x="750" 
d="M358 -451q-104 177 -160.5 373t-56.5 383q0 274 117 546t363 570h213q-208 -289 -308 -583.5t-100 -616.5q0 -178 35 -349.5t102 -322.5h-205z" />
    <glyph glyph-name="parenright" unicode=")" horiz-adv-x="750" 
d="M328 1421q105 -176 161 -372t56 -383q0 -275 -117 -546.5t-362 -570.5h-213q207 290 307 584.5t100 616.5q0 177 -35 348.5t-102 322.5h205z" />
    <glyph glyph-name="asterisk" unicode="*" horiz-adv-x="1034" 
d="M594 928l51 -316h-174l49 316l-186 -260l-123 123l258 190l-315 -51v174l315 -51l-258 190l123 123l186 -260l-49 315h174l-51 -313l188 258l123 -123l-258 -190l314 51v-174l-314 51l258 -190l-123 -123z" />
    <glyph glyph-name="plus" unicode="+" horiz-adv-x="1706" 
d="M752 1221h202v-510h498v-199h-498v-512h-202v512h-498v199h498v510z" />
    <glyph glyph-name="comma" unicode="," horiz-adv-x="549" 
d="M-86 -299l29 129q63 17 110 54t74 91q-54 26 -82.5 65t-28.5 89q0 72 49.5 120t124.5 48q87 0 144 -63t57 -160q0 -152 -135 -259.5t-342 -113.5z" />
    <glyph glyph-name="hyphen" unicode="-" horiz-adv-x="676" 
d="M16 346l37 248h535l-37 -248h-535z" />
    <glyph glyph-name="period" unicode="." horiz-adv-x="547" 
d="M37 147q0 71 48 119.5t118 48.5q69 0 118.5 -49t49.5 -119q0 -68 -49.5 -116.5t-118.5 -48.5t-117.5 48t-48.5 117z" />
    <glyph glyph-name="slash" unicode="/" horiz-adv-x="584" 
d="M94 -190h-160l510 1611h162z" />
    <glyph glyph-name="zero" unicode="0" horiz-adv-x="1096" 
d="M59 543q0 198 51.5 369.5t149.5 299.5q77 103 169.5 156t193.5 53q188 0 301.5 -153.5t113.5 -411.5q0 -182 -53 -356t-149 -307q-76 -106 -172.5 -163t-200.5 -57q-192 0 -298 149.5t-106 420.5zM608 1155q-43 0 -79.5 -34t-73.5 -111q-48 -100 -77.5 -240t-29.5 -276
q0 -140 30 -197t99 -57q43 0 80 33t70 100q53 107 85.5 246.5t32.5 261.5q0 135 -34.5 204.5t-102.5 69.5z" />
    <glyph glyph-name="one" unicode="1" horiz-adv-x="1096" 
d="M297 0l207 1399h293l-209 -1399h-291z" />
    <glyph glyph-name="two" unicode="2" horiz-adv-x="1096" 
d="M16 0v76q279 343 432.5 586t153.5 339q0 67 -41 106.5t-110 39.5q-49 0 -122 -32t-165 -95l45 303q83 51 160.5 75.5t154.5 24.5q165 0 273 -107.5t108 -268.5q0 -127 -76 -280.5t-323 -481.5h338l-33 -285h-795z" />
    <glyph glyph-name="three" unicode="3" horiz-adv-x="1096" 
d="M20 68l39 270q88 -49 162 -72.5t137 -23.5q106 0 174 54t68 136q0 80 -66 124t-188 44q-23 0 -74 -4h-6l37 266q34 -8 70 -12t73 -4q113 0 180.5 46.5t67.5 123.5q0 65 -53.5 105t-142.5 40q-57 0 -132 -22t-188 -72l39 279q82 37 166 56t170 19q194 0 313 -103.5
t119 -270.5q0 -122 -63.5 -206t-186.5 -124q88 -45 132 -119t44 -176q0 -196 -142.5 -321.5t-367.5 -125.5q-103 0 -197.5 23t-183.5 70z" />
    <glyph glyph-name="four" unicode="4" horiz-adv-x="1096" 
d="M270 522h289l68 445zM477 0l49 319h-479v242l690 836h234l-125 -875h149l-26 -203h-150l-45 -319h-297z" />
    <glyph glyph-name="five" unicode="5" horiz-adv-x="1096" 
d="M0 84l88 258q77 -47 143 -69.5t127 -22.5q113 0 181.5 54.5t68.5 144.5t-77.5 149t-198.5 59q-34 0 -69.5 -6t-74.5 -18l121 766h656l-45 -295h-361l-37 -230q182 -24 285.5 -133t103.5 -276q0 -213 -150 -351.5t-384 -138.5q-89 0 -182 27t-195 82z" />
    <glyph glyph-name="six" unicode="6" horiz-adv-x="1096" 
d="M344 391q0 -66 37.5 -105.5t101.5 -39.5q88 0 147.5 66t59.5 161q0 70 -34 107.5t-97 37.5q-88 0 -151.5 -67t-63.5 -160zM541 827q42 17 82 25t75 8q132 0 212.5 -94.5t80.5 -251.5q0 -235 -145 -387t-371 -152q-192 0 -307 118.5t-115 316.5q0 114 43 229t154 285
l311 475h328z" />
    <glyph glyph-name="seven" unicode="7" horiz-adv-x="1096" 
d="M209 0l428 1114h-453l62 285h815l-539 -1399h-313z" />
    <glyph glyph-name="eight" unicode="8" horiz-adv-x="1096" 
d="M352 762q-66 46 -98.5 108.5t-32.5 145.5q0 170 126.5 288.5t307.5 118.5q165 0 273 -99t108 -249q0 -126 -68.5 -214.5t-199.5 -131.5q93 -38 145 -124.5t52 -201.5q0 -183 -131 -305.5t-328 -122.5q-200 0 -323.5 111.5t-123.5 288.5q0 140 78.5 243.5t214.5 143.5z
M637 1165q-57 0 -97 -55.5t-40 -134.5q0 -54 26 -83.5t74 -29.5q57 0 97 55t40 136q0 52 -26.5 82t-73.5 30zM543 596q-78 0 -130.5 -58.5t-52.5 -144.5q0 -71 37 -112t101 -41q76 0 126 59t50 154q0 63 -37 103t-94 40z" />
    <glyph glyph-name="nine" unicode="9" horiz-adv-x="1096" 
d="M743 1008q0 66 -37 104.5t-102 38.5q-87 0 -147 -66t-60 -161q0 -69 34 -106.5t97 -37.5q89 0 152 67.5t63 160.5zM547 571q-47 -17 -85 -25.5t-71 -8.5q-131 0 -213 95.5t-82 252.5q0 234 145 385t371 151q193 0 307.5 -117t114.5 -315q0 -114 -42.5 -229t-153.5 -285
l-312 -475h-327z" />
    <glyph glyph-name="colon" unicode=":" horiz-adv-x="547" 
d="M115 793q0 69 49 118.5t119 49.5q69 0 118.5 -49.5t49.5 -118.5q0 -70 -49 -118t-119 -48t-119 48.5t-49 117.5zM29 147q0 70 48.5 118t119.5 48q69 0 117 -48t48 -118t-48 -118.5t-117 -48.5q-70 0 -119 49t-49 118z" />
    <glyph glyph-name="semicolon" unicode=";" horiz-adv-x="547" 
d="M-86 -285l29 129q63 17 108.5 53.5t73.5 92.5q-54 25 -81.5 63t-27.5 88q0 73 50 121.5t124 48.5q87 0 144 -63t57 -160q0 -156 -133 -261.5t-344 -111.5zM115 801q0 69 49.5 118.5t118.5 49.5t117.5 -49t48.5 -119t-48.5 -118t-117.5 -48q-70 0 -119 48.5t-49 117.5z
" />
    <glyph glyph-name="less" unicode="&#x3c;" horiz-adv-x="1706" 
d="M1442 1194v-219l-893 -365l893 -364v-219l-1178 485v199z" />
    <glyph glyph-name="equal" unicode="=" horiz-adv-x="1706" 
d="M254 496h1198v-199h-1198v199zM254 926h1198v-199h-1198v199z" />
    <glyph glyph-name="greater" unicode="&#x3e;" horiz-adv-x="1706" 
d="M264 1194l1178 -483v-199l-1178 -485v219l895 364l-895 365v219z" />
    <glyph glyph-name="question" unicode="?" horiz-adv-x="829" 
d="M162 439q3 86 37.5 168t105.5 171q28 35 80 93q109 124 109 178q0 45 -30.5 73.5t-80.5 28.5t-122 -30t-169 -91l43 299q78 48 153.5 71t155.5 23q150 0 246 -96t96 -246q0 -158 -195 -355l-32 -32q-79 -81 -118.5 -141.5t-49.5 -114.5zM96 147q0 71 48 119.5t118 48.5
t119 -49t49 -119q0 -68 -49 -116.5t-119 -48.5q-69 0 -117.5 48t-48.5 117z" />
    <glyph glyph-name="at" unicode="@" horiz-adv-x="2048" 
d="M1167 272q-55 -84 -127 -123.5t-170 -39.5q-158 0 -240.5 86t-82.5 254q0 239 139.5 401t343.5 162q80 0 139 -33t97 -98l53 98h178l-147 -598q-3 -11 -5 -22.5t-2 -18.5q0 -35 24 -52.5t71 -17.5q39 0 81.5 20t79.5 56q86 80 130.5 187t44.5 235q0 240 -185.5 394.5
t-478.5 154.5q-141 0 -262.5 -34t-220.5 -101q-170 -114 -261.5 -285t-91.5 -375q0 -307 207 -490.5t553 -183.5q162 0 316.5 49t287.5 142l82 -117q-153 -115 -324.5 -173t-357.5 -58q-192 0 -353 48.5t-286 143.5q-155 121 -232 279t-77 358q0 167 52.5 318.5t154.5 275.5
q148 181 356 274t463 93q169 0 317.5 -45.5t258.5 -128.5q135 -105 201.5 -239.5t66.5 -303.5q0 -165 -65.5 -304.5t-188.5 -238.5q-70 -56 -152.5 -85.5t-171.5 -29.5q-106 0 -159.5 42t-55.5 124zM1217 700q-13 81 -57.5 123.5t-117.5 42.5q-114 0 -198 -124t-84 -298
q0 -92 40.5 -140t117.5 -48q83 0 151.5 63t93.5 164z" />
    <glyph glyph-name="A" unicode="A" horiz-adv-x="1198" 
d="M449 510h317l-80 534zM-106 0l667 1399h342l236 -1399h-295l-47 305h-437l-133 -305h-333z" />
    <glyph glyph-name="B" unicode="B" horiz-adv-x="1311" 
d="M467 850h160q119 0 177 42.5t58 129.5q0 82 -55.5 123t-165.5 41h-125zM371 221h243q142 0 218.5 55.5t76.5 157.5q0 112 -74.5 158.5t-265.5 46.5h-135zM35 0l209 1399h268q194 0 270.5 -7t128.5 -24q115 -35 177.5 -117t62.5 -196q0 -102 -49.5 -177t-143.5 -116
q122 -50 187 -140.5t65 -207.5q0 -87 -36.5 -162t-106.5 -133q-77 -64 -187.5 -91.5t-306.5 -27.5h-538z" />
    <glyph glyph-name="C" unicode="C" horiz-adv-x="1403" 
d="M1165 78q-103 -51 -213.5 -77t-224.5 -26q-292 0 -475.5 182.5t-183.5 471.5q0 169 61 311t182 254q128 118 292.5 173.5t389.5 55.5q96 0 188 -12.5t179 -38.5l-39 -256q-90 22 -168.5 32.5t-148.5 10.5q-289 0 -458 -144.5t-169 -389.5q0 -179 107 -279t298 -100
q112 0 225.5 44.5t211.5 127.5z" />
    <glyph glyph-name="D" unicode="D" horiz-adv-x="1507" 
d="M381 236h254q223 0 352 121.5t129 330.5q0 223 -141.5 349t-392.5 126q-26 0 -39 -0.5t-23 -1.5zM39 0l209 1399q29 0 84.5 1t81.5 1q254 0 403.5 -23t247.5 -73q177 -93 272 -254.5t95 -370.5q0 -137 -43 -255t-125 -210q-105 -114 -254 -164.5t-392 -50.5h-579z" />
    <glyph glyph-name="E" unicode="E" horiz-adv-x="1169" 
d="M29 0l209 1399h870l-37 -248h-569l-47 -320h503l-36 -237h-502l-55 -365h729l-35 -229h-1030z" />
    <glyph glyph-name="F" unicode="F" horiz-adv-x="1020" 
d="M31 0l209 1399h794l-37 -244h-493l-49 -324h430l-35 -231h-430l-88 -600h-301z" />
    <glyph glyph-name="G" unicode="G" horiz-adv-x="1491" 
d="M1454 1374l-41 -264q-99 28 -189.5 41.5t-170.5 13.5q-305 0 -493.5 -150.5t-188.5 -391.5q0 -185 114.5 -283t327.5 -98q33 0 72 3t98 11l37 256h-260l33 227h563l-109 -723q-92 -20 -179.5 -30.5t-172.5 -10.5q-408 0 -623 160t-215 465q0 179 80 337t230 275
q133 105 311.5 157t402.5 52q93 0 185.5 -11.5t187.5 -35.5z" />
    <glyph glyph-name="H" unicode="H" horiz-adv-x="1526" 
d="M27 0l209 1399h307l-82 -547h647l82 547h307l-209 -1399h-307l84 573h-645l-86 -573h-307z" />
    <glyph glyph-name="I" unicode="I" horiz-adv-x="596" 
d="M39 0l207 1399h311l-209 -1399h-309z" />
    <glyph glyph-name="J" unicode="J" horiz-adv-x="588" 
d="M-227 -457l-60 228q9 0 24.5 -1t22.5 -1q87 0 139.5 18t77.5 57q27 40 45 108.5t41 231.5l179 1215h309l-186 -1254l-1 -2q-61 -420 -169 -514q-51 -44 -134 -67t-192 -23q-27 0 -86 4h-10z" />
    <glyph glyph-name="K" unicode="K" horiz-adv-x="1331" 
d="M29 0l209 1399h309l-88 -586l559 586h379l-619 -629l537 -770h-342l-527 729l-108 -729h-309z" />
    <glyph glyph-name="L" unicode="L" horiz-adv-x="1090" 
d="M31 0l209 1399h303l-174 -1170h635l-33 -229h-940z" />
    <glyph glyph-name="M" unicode="M" horiz-adv-x="1952" 
d="M-45 0l469 1399h328l202 -903l486 903h313l59 -1399h-290l-33 967l-514 -967h-162l-229 991l-328 -991h-301z" />
    <glyph glyph-name="N" unicode="N" horiz-adv-x="1573" 
d="M33 0l209 1399h305l559 -934l125 934h307l-207 -1399h-274l-582 971l-137 -971h-305z" />
    <glyph glyph-name="O" unicode="O" horiz-adv-x="1577" 
d="M850 1161q-203 0 -337 -148.5t-134 -373.5q0 -186 92.5 -292.5t253.5 -106.5q206 0 339.5 150.5t133.5 385.5q0 168 -98.5 276.5t-249.5 108.5zM63 610q0 165 51 302t154 249q115 126 269.5 193t326.5 67q124 0 226.5 -30.5t183.5 -92.5q115 -85 177 -218t62 -292
q0 -162 -51 -302.5t-149 -245.5q-119 -130 -271 -196.5t-331 -66.5q-125 0 -226 30.5t-182 90.5q-112 85 -176 221t-64 291z" />
    <glyph glyph-name="P" unicode="P" horiz-adv-x="1219" 
d="M451 754q25 -3 50.5 -4.5t49.5 -1.5q152 0 230.5 56t78.5 165q0 100 -77 153.5t-222 53.5q-8 0 -23.5 -1t-23.5 -1zM33 0l209 1399h241q224 0 310.5 -12.5t146.5 -40.5q106 -51 165.5 -146.5t59.5 -214.5q0 -228 -146.5 -346.5t-428.5 -118.5h-174l-76 -520h-307z" />
    <glyph glyph-name="Q" unicode="Q" horiz-adv-x="1577" 
d="M1036 -414q-179 49 -328 157.5t-276 281.5q-171 71 -270 228.5t-99 356.5q0 165 51.5 304t151.5 247q117 126 271.5 193t326.5 67q124 0 226.5 -30.5t183.5 -92.5q115 -85 177 -218t62 -292q0 -302 -174 -518t-465 -276q83 -80 171.5 -119t185.5 -39q18 0 26.5 0.5
t16.5 1.5l31 -26zM850 1161q-203 0 -337 -148.5t-134 -373.5q0 -186 92.5 -292.5t253.5 -106.5q206 0 339.5 150.5t133.5 385.5q0 168 -98.5 276.5t-249.5 108.5z" />
    <glyph glyph-name="R" unicode="R" horiz-adv-x="1270" 
d="M453 791l6 -1q75 -4 108 -4q166 0 242 47t76 148q0 96 -68 142t-209 46q-39 0 -60 -1t-40 -3zM31 0l209 1399h321q173 0 268 -14t154 -46q99 -52 155 -145t56 -205q0 -145 -80 -244t-223 -131q59 -32 136 -166t212 -448h-324l-100 207q-91 190 -121 235q-43 66 -95 94.5
t-130 28.5q-20 0 -31 -0.5t-20 -1.5l-84 -563h-303z" />
    <glyph glyph-name="S" unicode="S" horiz-adv-x="1083" 
d="M57 365q124 -73 218 -106.5t174 -33.5q92 0 150 44.5t58 113.5q0 91 -199 215l-67 43q-131 84 -194.5 173t-63.5 187q0 181 142 300.5t360 119.5q95 0 191 -24.5t196 -75.5l-47 -252q-96 53 -178.5 79t-153.5 26q-90 0 -146.5 -40t-56.5 -102q0 -75 158 -176
q71 -45 111 -74q143 -102 195 -183t52 -185q0 -194 -132.5 -316.5t-344.5 -122.5q-121 0 -235.5 35.5t-231.5 108.5z" />
    <glyph glyph-name="T" unicode="T" horiz-adv-x="1237" 
d="M367 0l174 1161h-451l33 238h1202l-33 -238h-444l-174 -1161h-307z" />
    <glyph glyph-name="U" unicode="U" horiz-adv-x="1575" 
d="M246 1399h305l-100 -668q-12 -84 -17.5 -137t-5.5 -84q0 -128 82 -198t231 -70q163 0 247 96t120 334l109 727h313l-117 -772q-29 -194 -75.5 -303.5t-127.5 -182.5q-90 -80 -220 -124t-281 -44q-270 0 -426 142.5t-156 388.5q0 46 4 99t12 112z" />
    <glyph glyph-name="V" unicode="V" horiz-adv-x="1165" 
d="M389 -12l-274 1411h291l139 -852l375 852h305l-668 -1411h-168z" />
    <glyph glyph-name="W" unicode="W" horiz-adv-x="1909" 
d="M362 -12l-268 1411h283l139 -840l447 840h149l203 -838l391 838h299l-682 -1411h-139l-213 872l-465 -872h-144z" />
    <glyph glyph-name="X" unicode="X" horiz-adv-x="1450" 
d="M-70 0l623 723l-399 676h333l271 -465l397 465h365l-619 -705l412 -694h-336l-285 473l-401 -473h-361z" />
    <glyph glyph-name="Y" unicode="Y" horiz-adv-x="1100" 
d="M299 0l82 588l-295 811h301l178 -527l320 527h321l-522 -819l-82 -580h-303z" />
    <glyph glyph-name="Z" unicode="Z" horiz-adv-x="1386" 
d="M-35 0l924 1161h-688l37 238h1196l-920 -1155h696l-34 -244h-1211z" />
    <glyph glyph-name="bracketleft" unicode="[" horiz-adv-x="827" 
d="M899 1399l-35 -238h-278l-203 -1351h281l-35 -238h-545l272 1827h543z" />
    <glyph glyph-name="backslash" unicode="\" horiz-adv-x="584" 
d="M311 -190l-221 1611h160l221 -1611h-160z" />
    <glyph glyph-name="bracketright" unicode="]" horiz-adv-x="827" 
d="M-133 -428l35 238h278l203 1351h-281l35 238h545l-272 -1827h-543z" />
    <glyph glyph-name="asciicircum" unicode="^" horiz-adv-x="2048" 
d="M897 1460h252l481 -561h-235l-371 371l-373 -371h-235z" />
    <glyph glyph-name="underscore" unicode="_" 
d="M0 -279h1024v-204h-1024v204z" />
    <glyph glyph-name="grave" unicode="`" 
d="M717 1077h-117l-301 348h213z" />
    <glyph glyph-name="a" unicode="a" horiz-adv-x="1090" 
d="M647 272l65 449q-9 1 -20.5 1.5t-34.5 0.5q-166 0 -263 -96t-97 -258q0 -80 37.5 -126t101.5 -46q51 0 103.5 18.5t107.5 56.5zM606 0l10 74q-69 -48 -132.5 -70t-129.5 -22q-151 0 -240 105.5t-89 285.5q0 126 48.5 235.5t139.5 186.5q98 83 229.5 118t421.5 35h156
l-139 -948h-275z" />
    <glyph glyph-name="b" unicode="b" horiz-adv-x="1085" 
d="M2 20l205 1379h278l-79 -525q67 47 129 70t124 23q152 0 247 -117t95 -305q0 -274 -170.5 -419.5t-492.5 -145.5q-82 0 -165.5 10t-170.5 30zM303 203q8 0 21.5 -1t19.5 -1q180 0 278.5 85t98.5 238q0 98 -41.5 153.5t-112.5 55.5q-52 0 -101 -27t-97 -83z" />
    <glyph glyph-name="c" unicode="c" horiz-adv-x="977" 
d="M797 25q-79 -22 -153.5 -32.5t-145.5 -10.5q-206 0 -337.5 124.5t-131.5 319.5q0 233 172 387t438 154q61 0 124.5 -11t129.5 -32l-35 -252q-69 20 -125 30.5t-98 10.5q-140 0 -230 -79t-90 -200q0 -103 62 -157t180 -54q62 0 131.5 19t147.5 57z" />
    <glyph glyph-name="d" unicode="d" horiz-adv-x="1090" 
d="M637 205l75 518q-10 1 -22.5 1.5t-36.5 0.5q-161 0 -251.5 -79t-90.5 -218q0 -109 73.5 -167t211.5 -58q7 0 20.5 1t20.5 1zM885 14q-80 -16 -149.5 -24t-127.5 -8q-142 0 -231.5 18.5t-153.5 60.5q-96 64 -147 160t-51 213q0 240 168 385.5t448 145.5q26 0 54 -2l55 -4
l65 440h277z" />
    <glyph glyph-name="e" unicode="e" horiz-adv-x="1042" 
d="M842 57q-76 -38 -166 -57.5t-187 -19.5q-213 0 -337.5 123.5t-124.5 336.5q0 236 144 381.5t380 145.5q191 0 295 -110t104 -312q0 -25 -1.5 -51.5t-4.5 -52.5l-629 -1q0 -5 -1 -15t-1 -13q0 -102 60.5 -155.5t175.5 -53.5q65 0 148.5 24.5t195.5 77.5zM354 604h322v19
q0 74 -34.5 112.5t-100.5 38.5q-68 0 -115 -43t-72 -127z" />
    <glyph glyph-name="f" unicode="f" horiz-adv-x="633" 
d="M-4 -420l170 1149h-193l33 219h193q35 227 150 347t298 120q47 0 102.5 -10t122.5 -31l-30 -229q-51 16 -89 23.5t-71 7.5q-87 0 -138 -56t-71 -172h201l-33 -219h-199l-172 -1151z" />
    <glyph glyph-name="g" unicode="g" horiz-adv-x="1036" 
d="M362 -90q-84 -18 -131 -46.5t-47 -62.5q0 -43 53 -65.5t156 -22.5q104 0 154.5 21t50.5 63q0 36 -53.5 62t-182.5 51zM492 762q-66 0 -110 -51.5t-44 -128.5q0 -64 33.5 -103t87.5 -39q68 0 110.5 53t42.5 138q0 57 -34 94t-86 37zM217 338q-73 46 -112 114.5t-39 151.5
q0 76 36.5 145t102.5 117q63 45 157.5 63.5t333.5 18.5h334l-33 -211l-143 2q15 -42 22 -75.5t7 -61.5q0 -150 -114.5 -248t-295.5 -98q-6 0 -29.5 1t-42.5 1q-43 0 -66.5 -14t-23.5 -39q0 -40 172 -68q45 -7 72 -12q160 -29 243 -103t83 -186q0 -150 -128 -229.5
t-368 -79.5q-221 0 -343 61t-122 170q0 75 61.5 135t168.5 89q-62 37 -90.5 77.5t-28.5 87.5q0 70 50 121.5t136 69.5z" />
    <glyph glyph-name="h" unicode="h" horiz-adv-x="1083" 
d="M4 0l209 1399h272l-84 -557q83 65 159 95t159 30q121 0 189.5 -69.5t68.5 -190.5q0 -28 -2 -54.5t-6 -50.5l-90 -602h-279l86 573q1 10 3 27q5 38 5 51q0 52 -21.5 80.5t-60.5 28.5q-53 0 -113.5 -35t-129.5 -107l-93 -618h-272z" />
    <glyph glyph-name="i" unicode="i" horiz-adv-x="496" 
d="M174 1214q0 60 40.5 101t100.5 41t101 -41.5t41 -100.5q0 -58 -41.5 -99.5t-100.5 -41.5q-58 0 -99.5 41.5t-41.5 99.5zM12 0l142 948h270l-141 -948h-271z" />
    <glyph glyph-name="j" unicode="j" horiz-adv-x="487" 
d="M-203 -446l31 219q85 4 122.5 50.5t61.5 209.5l135 915h275l-137 -929q-1 -7 -4 -22q-37 -247 -113 -337q-49 -58 -115 -87.5t-147 -29.5q-18 0 -42 2.5t-67 8.5zM178 1214q0 60 41 101t100 41q60 0 102 -41.5t42 -100.5q0 -58 -42.5 -99.5t-101.5 -41.5
q-58 0 -99.5 41.5t-41.5 99.5z" />
    <glyph glyph-name="k" unicode="k" horiz-adv-x="1012" 
d="M0 0l209 1399h270l-129 -864l340 413h328l-397 -463l370 -485h-325l-328 449l-68 -449h-270z" />
    <glyph glyph-name="l" unicode="l" horiz-adv-x="496" 
d="M12 0l209 1399h271l-209 -1399h-271z" />
    <glyph glyph-name="m" unicode="m" horiz-adv-x="1688" 
d="M6 0l141 948h275l-16 -114q69 67 147 100t170 33q89 0 145.5 -38.5t87.5 -121.5q100 80 188 120t169 40q127 0 196.5 -69.5t69.5 -197.5q0 -34 -5.5 -87t-17.5 -136l-71 -477h-279l92 602q1 2 1 6q3 30 4 43q0 55 -23.5 82t-71.5 27q-50 0 -111.5 -35.5t-119.5 -99.5
l-92 -625h-277l92 602q1 2 1 6q3 30 4 45q0 53 -23.5 80t-69.5 27q-56 0 -117.5 -36.5t-121.5 -105.5l-92 -618h-275z" />
    <glyph glyph-name="n" unicode="n" horiz-adv-x="1083" 
d="M6 0l141 948h273l-17 -106q79 64 155.5 94.5t160.5 30.5q121 0 189.5 -69.5t68.5 -190.5q0 -28 -2 -54.5t-6 -50.5l-90 -602h-279l86 573q4 27 6 49t2 35q0 47 -22.5 75t-59.5 28q-55 0 -116.5 -36t-124.5 -106l-92 -618h-273z" />
    <glyph glyph-name="o" unicode="o" horiz-adv-x="1085" 
d="M23 436q0 228 154.5 380.5t385.5 152.5q196 0 319.5 -124t123.5 -319q0 -234 -155 -390t-386 -156q-203 0 -322.5 123.5t-119.5 332.5zM545 741q-98 0 -168 -90.5t-70 -222.5q0 -102 48 -161.5t130 -59.5q98 0 166 89.5t68 221.5q0 101 -48 162t-126 61z" />
    <glyph glyph-name="p" unicode="p" horiz-adv-x="1116" 
d="M354 231q21 -4 43 -6t45 -2q141 0 221 89.5t80 246.5q0 100 -52.5 157.5t-143.5 57.5q-26 0 -54 -6t-61 -18zM-25 -465l162 1086q-65 -40 -110 -103t-54 -63q-7 0 -9.5 3.5t-2.5 14.5q0 62 55.5 150.5t145.5 162.5l49 330h276l-28 -180q46 15 89 23t83 8
q176 0 291.5 -110.5t115.5 -276.5q0 -262 -165.5 -427t-428.5 -165q-35 0 -118 7l-7 1l-69 -461h-275z" />
    <glyph glyph-name="q" unicode="q" horiz-adv-x="1085" 
d="M717 743q-9 1 -20.5 1.5t-32.5 0.5q-169 0 -266 -83.5t-97 -229.5q0 -98 42 -154.5t116 -56.5q50 0 98.5 27.5t99.5 85.5zM1016 930l-207 -1395h-268l73 528q-61 -38 -120 -56.5t-119 -18.5q-161 0 -259 115.5t-98 306.5q0 266 170.5 410.5t485.5 144.5q81 0 166.5 -9
t175.5 -26z" />
    <glyph glyph-name="r" unicode="r" horiz-adv-x="821" 
d="M16 0l142 948h274l-18 -131q80 90 126.5 120t94.5 30q38 0 81 -16t91 -48l-133 -289q-38 41 -70 60.5t-61 19.5q-41 0 -83.5 -32.5t-84.5 -96.5l-84 -565h-275z" />
    <glyph glyph-name="s" unicode="s" horiz-adv-x="754" 
d="M-29 68l31 215l10 -4q197 -74 281 -74q33 0 55.5 16.5t22.5 40.5q0 42 -86 106q-51 38 -80 64q-91 82 -122.5 135.5t-31.5 116.5q0 125 95.5 204t246.5 79q73 0 146 -20t151 -60l-16 -225q-84 41 -152 63.5t-108 22.5q-31 0 -51.5 -14t-20.5 -36q0 -43 99 -117
q51 -39 79 -63q76 -63 104.5 -115t28.5 -120q0 -130 -97.5 -215.5t-248.5 -85.5q-80 0 -165.5 21.5t-170.5 64.5z" />
    <glyph glyph-name="t" unicode="t" horiz-adv-x="758" 
d="M655 43q-61 -31 -122 -46t-121 -15q-146 0 -221.5 78.5t-75.5 232.5q0 21 3.5 52.5t10.5 70.5l53 319h-192l33 213h194l33 197h278l-30 -197h211l-31 -213h-211l-51 -342q-1 -4 -1 -9q-3 -26 -3 -38q0 -52 21.5 -77t66.5 -25q25 0 63 12t92 39v-252z" />
    <glyph glyph-name="u" unicode="u" horiz-adv-x="1083" 
d="M139 948h279l-86 -573q-4 -26 -6 -46.5t-2 -31.5q0 -52 21.5 -80.5t60.5 -28.5q55 0 116.5 36.5t124.5 105.5l92 618h275l-142 -948h-274l16 106q-78 -64 -154.5 -94t-160.5 -30q-121 0 -189.5 69t-68.5 191q0 27 2 53.5t6 50.5z" />
    <glyph glyph-name="v" unicode="v" horiz-adv-x="850" 
d="M215 0l-242 948h279l119 -510l258 510h297l-516 -948h-195z" />
    <glyph glyph-name="w" unicode="w" horiz-adv-x="1421" 
d="M203 0l-223 948h268l110 -534l293 534h170l94 -520l291 520h285l-545 -948h-184l-103 498l-278 -498h-178z" />
    <glyph glyph-name="x" unicode="x" horiz-adv-x="967" 
d="M215 0h-352l450 500l-286 448h311l156 -272l223 272h319l-401 -481l274 -467h-313l-147 283z" />
    <glyph glyph-name="y" unicode="y" horiz-adv-x="897" 
d="M238 90l-295 858h278l182 -526l256 526h285l-688 -1413h-285z" />
    <glyph glyph-name="z" unicode="z" horiz-adv-x="930" 
d="M-45 0v37l500 686h-398l35 225h809v-35l-481 -686h422l-33 -227h-854z" />
    <glyph glyph-name="braceleft" unicode="{" 
d="M883 1477v-209q-9 0 -25 1t-22 1q-101 0 -136.5 -38.5t-35.5 -162.5v-240q0 -148 -45 -210t-162 -89q117 -27 162 -88t45 -209v-241q0 -123 35 -161t137 -38q6 0 22 1t25 1v-209q-14 0 -39 -1t-37 -1q-100 0 -167 12t-114 37q-57 34 -80.5 91.5t-23.5 199.5v252
q0 137 -51 194.5t-172 57.5q-6 0 -20 -1t-21 -1v209q7 0 21 -1t20 -1q120 0 171.5 58t51.5 196v250q0 143 23.5 201t80.5 92q47 25 114 37t167 12q12 0 37 -1t39 -1z" />
    <glyph glyph-name="bar" unicode="|" 
d="M410 1565h206v-2048h-206v2048z" />
    <glyph glyph-name="braceright" unicode="}" 
d="M143 1477h68q110 0 177 -12t112 -38q57 -32 80.5 -91.5t23.5 -198.5v-252q0 -137 51 -194.5t172 -57.5q6 0 20 1t21 1v-209h-37q-125 0 -176 -56t-51 -194v-252q0 -143 -23.5 -201t-80.5 -90q-47 -25 -114 -37t-167 -12q-12 0 -37 1t-39 1v209q9 0 25 -1t22 -1
q101 0 136.5 38.5t35.5 160.5v239q0 150 45 211.5t162 87.5q-117 27 -162 89t-45 210v242q0 122 -35.5 160.5t-136.5 38.5q-6 0 -22 -1t-25 -1v209z" />
    <glyph glyph-name="asciitilde" unicode="~" horiz-adv-x="1706" 
d="M1530 803v-221q-104 -71 -196.5 -104.5t-182.5 -33.5q-46 0 -92 8t-92 23q-24 8 -71 25q-219 75 -333 75q-85 0 -177.5 -37.5t-207.5 -119.5v221q107 72 204 107.5t183 35.5q117 0 291 -58l4 -1l55 -19q155 -55 240 -55t175 37t200 117z" />
    <glyph glyph-name="Adieresis" unicode="&#xc4;" horiz-adv-x="1198" 
d="M449 510h317l-80 534zM-106 0l667 1399h342l236 -1399h-295l-47 305h-437l-133 -305h-333zM809 1696q0 46 36.5 82.5t82.5 36.5q49 0 83.5 -35t34.5 -84q0 -54 -33 -88.5t-85 -34.5q-49 0 -84 36t-35 87zM448 1696q0 46 36.5 82.5t82.5 36.5q50 0 85.5 -35t35.5 -84
q0 -53 -34 -88t-87 -35q-49 0 -84 36t-35 87z" />
    <glyph glyph-name="Aring" unicode="&#xc5;" horiz-adv-x="1198" 
d="M621 1718q0 -50 37 -87.5t87 -37.5q53 0 89 36.5t36 88.5q0 53 -36 89t-89 36q-52 0 -88 -36.5t-36 -88.5zM492 1718q0 106 73.5 180t179.5 74t180 -74t74 -180q0 -105 -73.5 -178.5t-180.5 -73.5q-106 0 -179.5 73.5t-73.5 178.5zM449 510h317l-80 534zM-106 0l667 1399
h342l236 -1399h-295l-47 305h-437l-133 -305h-333z" />
    <glyph glyph-name="Ccedilla" unicode="&#xc7;" horiz-adv-x="1403" 
d="M1165 78q-103 -51 -213.5 -77t-224.5 -26q-292 0 -475.5 182.5t-183.5 471.5q0 169 61 311t182 254q128 118 292.5 173.5t389.5 55.5q96 0 188 -12.5t179 -38.5l-39 -256q-90 22 -168.5 32.5t-148.5 10.5q-289 0 -458 -144.5t-169 -389.5q0 -179 107 -279t298 -100
q112 0 225.5 44.5t211.5 127.5zM340 -426l43 111q67 -24 123 -35.5t100 -11.5q55 0 87 24t32 66q0 41 -36 58t-126 17h-39l67 197h91l-33 -94h8q112 0 169.5 -43.5t57.5 -126.5q0 -102 -66 -158.5t-184 -56.5q-56 0 -126 12.5t-168 40.5z" />
    <glyph glyph-name="Eacute" unicode="&#xc9;" horiz-adv-x="1169" 
d="M29 0l209 1399h870l-37 -248h-569l-47 -320h503l-36 -237h-502l-55 -365h729l-35 -229h-1030zM686 1532h-131l221 348h213z" />
    <glyph glyph-name="Ntilde" unicode="&#xd1;" horiz-adv-x="1573" 
d="M33 0l209 1399h305l559 -934l125 934h307l-207 -1399h-274l-582 971l-137 -971h-305zM1243 1825q-29 -109 -80.5 -161t-130.5 -52q-20 0 -40 3t-40 9l-57 19q-15 4 -29 6t-28 2q-34 0 -57.5 -19.5t-34.5 -58.5h-107q30 111 82 164t131 53q19 0 40 -3t44 -9l57 -18
q27 -7 36.5 -9t15.5 -2q33 0 56.5 19.5t35.5 56.5h106z" />
    <glyph glyph-name="Odieresis" unicode="&#xd6;" horiz-adv-x="1577" 
d="M850 1161q-203 0 -337 -148.5t-134 -373.5q0 -186 92.5 -292.5t253.5 -106.5q206 0 339.5 150.5t133.5 385.5q0 168 -98.5 276.5t-249.5 108.5zM63 610q0 165 51 302t154 249q115 126 269.5 193t326.5 67q124 0 226.5 -30.5t183.5 -92.5q115 -85 177 -218t62 -292
q0 -162 -51 -302.5t-149 -245.5q-119 -130 -271 -196.5t-331 -66.5q-125 0 -226 30.5t-182 90.5q-112 85 -176 221t-64 291zM975 1696q0 46 36.5 82.5t82.5 36.5q49 0 83.5 -35t34.5 -84q0 -54 -33 -88.5t-85 -34.5q-49 0 -84 36t-35 87zM614 1696q0 46 36.5 82.5t82.5 36.5
q50 0 85.5 -35t35.5 -84q0 -53 -34 -88t-87 -35q-49 0 -84 36t-35 87z" />
    <glyph glyph-name="Udieresis" unicode="&#xdc;" horiz-adv-x="1575" 
d="M246 1399h305l-100 -668q-12 -84 -17.5 -137t-5.5 -84q0 -128 82 -198t231 -70q163 0 247 96t120 334l109 727h313l-117 -772q-29 -194 -75.5 -303.5t-127.5 -182.5q-90 -80 -220 -124t-281 -44q-270 0 -426 142.5t-156 388.5q0 46 4 99t12 112zM975 1696q0 46 36.5 82.5
t82.5 36.5q49 0 83.5 -35t34.5 -84q0 -54 -33 -88.5t-85 -34.5q-49 0 -84 36t-35 87zM614 1696q0 46 36.5 82.5t82.5 36.5q50 0 85.5 -35t35.5 -84q0 -53 -34 -88t-87 -35q-49 0 -84 36t-35 87z" />
    <glyph glyph-name="aacute" unicode="&#xe1;" horiz-adv-x="1090" 
d="M647 272l65 449q-9 1 -20.5 1.5t-34.5 0.5q-166 0 -263 -96t-97 -258q0 -80 37.5 -126t101.5 -46q51 0 103.5 18.5t107.5 56.5zM606 0l10 74q-69 -48 -132.5 -70t-129.5 -22q-151 0 -240 105.5t-89 285.5q0 126 48.5 235.5t139.5 186.5q98 83 229.5 118t421.5 35h156
l-139 -948h-275zM627 1077h-131l221 348h213z" />
    <glyph glyph-name="agrave" unicode="&#xe0;" horiz-adv-x="1090" 
d="M647 272l65 449q-9 1 -20.5 1.5t-34.5 0.5q-166 0 -263 -96t-97 -258q0 -80 37.5 -126t101.5 -46q51 0 103.5 18.5t107.5 56.5zM606 0l10 74q-69 -48 -132.5 -70t-129.5 -22q-151 0 -240 105.5t-89 285.5q0 126 48.5 235.5t139.5 186.5q98 83 229.5 118t421.5 35h156
l-139 -948h-275zM787 1077h-117l-301 348h213z" />
    <glyph glyph-name="acircumflex" unicode="&#xe2;" horiz-adv-x="1090" 
d="M647 272l65 449q-9 1 -20.5 1.5t-34.5 0.5q-166 0 -263 -96t-97 -258q0 -80 37.5 -126t101.5 -46q51 0 103.5 18.5t107.5 56.5zM606 0l10 74q-69 -48 -132.5 -70t-129.5 -22q-151 0 -240 105.5t-89 285.5q0 126 48.5 235.5t139.5 186.5q98 83 229.5 118t421.5 35h156
l-139 -948h-275zM928 1077h-119l-129 201l-217 -201h-131l254 348h213z" />
    <glyph glyph-name="adieresis" unicode="&#xe4;" horiz-adv-x="1090" 
d="M647 272l65 449q-9 1 -20.5 1.5t-34.5 0.5q-166 0 -263 -96t-97 -258q0 -80 37.5 -126t101.5 -46q51 0 103.5 18.5t107.5 56.5zM606 0l10 74q-69 -48 -132.5 -70t-129.5 -22q-151 0 -240 105.5t-89 285.5q0 126 48.5 235.5t139.5 186.5q98 83 229.5 118t421.5 35h156
l-139 -948h-275zM703 1241q0 46 36.5 82.5t82.5 36.5q49 0 83.5 -35t34.5 -84q0 -54 -33 -88.5t-85 -34.5q-49 0 -84 36t-35 87zM342 1241q0 46 36.5 82.5t82.5 36.5q50 0 85.5 -35t35.5 -84q0 -53 -34 -88t-87 -35q-49 0 -84 36t-35 87z" />
    <glyph glyph-name="atilde" unicode="&#xe3;" horiz-adv-x="1090" 
d="M647 272l65 449q-9 1 -20.5 1.5t-34.5 0.5q-166 0 -263 -96t-97 -258q0 -80 37.5 -126t101.5 -46q51 0 103.5 18.5t107.5 56.5zM606 0l10 74q-69 -48 -132.5 -70t-129.5 -22q-151 0 -240 105.5t-89 285.5q0 126 48.5 235.5t139.5 186.5q98 83 229.5 118t421.5 35h156
l-139 -948h-275zM973 1370q-29 -109 -80.5 -161t-130.5 -52q-20 0 -40 3t-40 9l-57 19q-15 4 -29 6t-28 2q-34 0 -57.5 -19.5t-34.5 -58.5h-107q30 111 82 164t131 53q19 0 40 -3t44 -9l57 -18q27 -7 36.5 -9t15.5 -2q33 0 56.5 19.5t35.5 56.5h106z" />
    <glyph glyph-name="aring" unicode="&#xe5;" horiz-adv-x="1090" 
d="M541 1268q0 -52 36.5 -88.5t88.5 -36.5t88.5 36t36.5 89t-36.5 89t-88.5 36q-53 0 -89 -36.5t-36 -88.5zM412 1268q0 106 74 180t180 74t180 -74t74 -180t-74 -179t-180 -73q-107 0 -180.5 73t-73.5 179zM606 0l10 74q-69 -48 -132.5 -70t-129.5 -22q-151 0 -240 105.5
t-89 285.5q0 126 48.5 235.5t139.5 186.5q98 83 229.5 118t421.5 35h156l-139 -948h-275zM647 272l65 449q-9 1 -20.5 1.5t-34.5 0.5q-166 0 -263 -96t-97 -258q0 -80 37.5 -126t101.5 -46q51 0 103.5 18.5t107.5 56.5z" />
    <glyph glyph-name="ccedilla" unicode="&#xe7;" horiz-adv-x="977" 
d="M797 25q-79 -22 -153.5 -32.5t-145.5 -10.5q-206 0 -337.5 124.5t-131.5 319.5q0 233 172 387t438 154q61 0 124.5 -11t129.5 -32l-35 -252q-69 20 -125 30.5t-98 10.5q-140 0 -230 -79t-90 -200q0 -103 62 -157t180 -54q62 0 131.5 19t147.5 57zM127 -426l43 111
q67 -24 123 -35.5t100 -11.5q55 0 87 24t32 66q0 41 -36 58t-126 17h-39l67 197h91l-33 -94h8q112 0 169.5 -43.5t57.5 -126.5q0 -102 -66 -158.5t-184 -56.5q-56 0 -126 12.5t-168 40.5z" />
    <glyph glyph-name="eacute" unicode="&#xe9;" horiz-adv-x="1042" 
d="M842 57q-76 -38 -166 -57.5t-187 -19.5q-213 0 -337.5 123.5t-124.5 336.5q0 236 144 381.5t380 145.5q191 0 295 -110t104 -312q0 -25 -1.5 -51.5t-4.5 -52.5l-629 -1q0 -5 -1 -15t-1 -13q0 -102 60.5 -155.5t175.5 -53.5q65 0 148.5 24.5t195.5 77.5zM354 604h322v19
q0 74 -34.5 112.5t-100.5 38.5q-68 0 -115 -43t-72 -127zM545 1077h-131l221 348h213z" />
    <glyph glyph-name="egrave" unicode="&#xe8;" horiz-adv-x="1042" 
d="M842 57q-76 -38 -166 -57.5t-187 -19.5q-213 0 -337.5 123.5t-124.5 336.5q0 236 144 381.5t380 145.5q191 0 295 -110t104 -312q0 -25 -1.5 -51.5t-4.5 -52.5l-629 -1q0 -5 -1 -15t-1 -13q0 -102 60.5 -155.5t175.5 -53.5q65 0 148.5 24.5t195.5 77.5zM354 604h322v19
q0 74 -34.5 112.5t-100.5 38.5q-68 0 -115 -43t-72 -127zM705 1077h-117l-301 348h213z" />
    <glyph glyph-name="ecircumflex" unicode="&#xea;" horiz-adv-x="1042" 
d="M842 57q-76 -38 -166 -57.5t-187 -19.5q-213 0 -337.5 123.5t-124.5 336.5q0 236 144 381.5t380 145.5q191 0 295 -110t104 -312q0 -25 -1.5 -51.5t-4.5 -52.5l-629 -1q0 -5 -1 -15t-1 -13q0 -102 60.5 -155.5t175.5 -53.5q65 0 148.5 24.5t195.5 77.5zM354 604h322v19
q0 74 -34.5 112.5t-100.5 38.5q-68 0 -115 -43t-72 -127zM846 1077h-119l-129 201l-217 -201h-131l254 348h213z" />
    <glyph glyph-name="edieresis" unicode="&#xeb;" horiz-adv-x="1042" 
d="M842 57q-76 -38 -166 -57.5t-187 -19.5q-213 0 -337.5 123.5t-124.5 336.5q0 236 144 381.5t380 145.5q191 0 295 -110t104 -312q0 -25 -1.5 -51.5t-4.5 -52.5l-629 -1q0 -5 -1 -15t-1 -13q0 -102 60.5 -155.5t175.5 -53.5q65 0 148.5 24.5t195.5 77.5zM354 604h322v19
q0 74 -34.5 112.5t-100.5 38.5q-68 0 -115 -43t-72 -127zM621 1241q0 46 36.5 82.5t82.5 36.5q49 0 83.5 -35t34.5 -84q0 -54 -33 -88.5t-85 -34.5q-49 0 -84 36t-35 87zM260 1241q0 46 36.5 82.5t82.5 36.5q50 0 85.5 -35t35.5 -84q0 -53 -34 -88t-87 -35q-49 0 -84 36
t-35 87z" />
    <glyph glyph-name="iacute" unicode="&#xed;" horiz-adv-x="496" 
d="M12 0l142 948h270l-141 -948h-271zM293 1077h-131l221 348h213z" />
    <glyph glyph-name="igrave" unicode="&#xec;" horiz-adv-x="496" 
d="M12 0l142 948h270l-141 -948h-271zM453 1077h-117l-301 348h213z" />
    <glyph glyph-name="icircumflex" unicode="&#xee;" horiz-adv-x="496" 
d="M12 0l142 948h270l-141 -948h-271zM594 1077h-119l-129 201l-217 -201h-131l254 348h213z" />
    <glyph glyph-name="idieresis" unicode="&#xef;" horiz-adv-x="496" 
d="M12 0l142 948h270l-141 -948h-271zM369 1241q0 46 36.5 82.5t82.5 36.5q49 0 83.5 -35t34.5 -84q0 -54 -33 -88.5t-85 -34.5q-49 0 -84 36t-35 87zM8 1241q0 46 36.5 82.5t82.5 36.5q50 0 85.5 -35t35.5 -84q0 -53 -34 -88t-87 -35q-49 0 -84 36t-35 87z" />
    <glyph glyph-name="ntilde" unicode="&#xf1;" horiz-adv-x="1083" 
d="M6 0l141 948h273l-17 -106q79 64 155.5 94.5t160.5 30.5q121 0 189.5 -69.5t68.5 -190.5q0 -28 -2 -54.5t-6 -50.5l-90 -602h-279l86 573q4 27 6 49t2 35q0 47 -22.5 75t-59.5 28q-55 0 -116.5 -36t-124.5 -106l-92 -618h-273zM934 1370q-29 -109 -80.5 -161t-130.5 -52
q-20 0 -40 3t-40 9l-57 19q-15 4 -29 6t-28 2q-34 0 -57.5 -19.5t-34.5 -58.5h-107q30 111 82 164t131 53q19 0 40 -3t44 -9l57 -18q27 -7 36.5 -9t15.5 -2q33 0 56.5 19.5t35.5 56.5h106z" />
    <glyph glyph-name="oacute" unicode="&#xf3;" horiz-adv-x="1085" 
d="M23 436q0 228 154.5 380.5t385.5 152.5q196 0 319.5 -124t123.5 -319q0 -234 -155 -390t-386 -156q-203 0 -322.5 123.5t-119.5 332.5zM545 741q-98 0 -168 -90.5t-70 -222.5q0 -102 48 -161.5t130 -59.5q98 0 166 89.5t68 221.5q0 101 -48 162t-126 61zM559 1077h-131
l221 348h213z" />
    <glyph glyph-name="ograve" unicode="&#xf2;" horiz-adv-x="1085" 
d="M23 436q0 228 154.5 380.5t385.5 152.5q196 0 319.5 -124t123.5 -319q0 -234 -155 -390t-386 -156q-203 0 -322.5 123.5t-119.5 332.5zM545 741q-98 0 -168 -90.5t-70 -222.5q0 -102 48 -161.5t130 -59.5q98 0 166 89.5t68 221.5q0 101 -48 162t-126 61zM719 1077h-117
l-301 348h213z" />
    <glyph glyph-name="ocircumflex" unicode="&#xf4;" horiz-adv-x="1085" 
d="M23 436q0 228 154.5 380.5t385.5 152.5q196 0 319.5 -124t123.5 -319q0 -234 -155 -390t-386 -156q-203 0 -322.5 123.5t-119.5 332.5zM545 741q-98 0 -168 -90.5t-70 -222.5q0 -102 48 -161.5t130 -59.5q98 0 166 89.5t68 221.5q0 101 -48 162t-126 61zM860 1077h-119
l-129 201l-217 -201h-131l254 348h213z" />
    <glyph glyph-name="odieresis" unicode="&#xf6;" horiz-adv-x="1085" 
d="M23 436q0 228 154.5 380.5t385.5 152.5q196 0 319.5 -124t123.5 -319q0 -234 -155 -390t-386 -156q-203 0 -322.5 123.5t-119.5 332.5zM545 741q-98 0 -168 -90.5t-70 -222.5q0 -102 48 -161.5t130 -59.5q98 0 166 89.5t68 221.5q0 101 -48 162t-126 61zM635 1241
q0 46 36.5 82.5t82.5 36.5q49 0 83.5 -35t34.5 -84q0 -54 -33 -88.5t-85 -34.5q-49 0 -84 36t-35 87zM274 1241q0 46 36.5 82.5t82.5 36.5q50 0 85.5 -35t35.5 -84q0 -53 -34 -88t-87 -35q-49 0 -84 36t-35 87z" />
    <glyph glyph-name="otilde" unicode="&#xf5;" horiz-adv-x="1085" 
d="M23 436q0 228 154.5 380.5t385.5 152.5q196 0 319.5 -124t123.5 -319q0 -234 -155 -390t-386 -156q-203 0 -322.5 123.5t-119.5 332.5zM545 741q-98 0 -168 -90.5t-70 -222.5q0 -102 48 -161.5t130 -59.5q98 0 166 89.5t68 221.5q0 101 -48 162t-126 61zM905 1370
q-29 -109 -80.5 -161t-130.5 -52q-20 0 -40 3t-40 9l-57 19q-15 4 -29 6t-28 2q-34 0 -57.5 -19.5t-34.5 -58.5h-107q30 111 82 164t131 53q19 0 40 -3t44 -9l57 -18q27 -7 36.5 -9t15.5 -2q33 0 56.5 19.5t35.5 56.5h106z" />
    <glyph glyph-name="uacute" unicode="&#xfa;" horiz-adv-x="1083" 
d="M139 948h279l-86 -573q-4 -26 -6 -46.5t-2 -31.5q0 -52 21.5 -80.5t60.5 -28.5q55 0 116.5 36.5t124.5 105.5l92 618h275l-142 -948h-274l16 106q-78 -64 -154.5 -94t-160.5 -30q-121 0 -189.5 69t-68.5 191q0 27 2 53.5t6 50.5zM588 1077h-131l221 348h213z" />
    <glyph glyph-name="ugrave" unicode="&#xf9;" horiz-adv-x="1083" 
d="M139 948h279l-86 -573q-4 -26 -6 -46.5t-2 -31.5q0 -52 21.5 -80.5t60.5 -28.5q55 0 116.5 36.5t124.5 105.5l92 618h275l-142 -948h-274l16 106q-78 -64 -154.5 -94t-160.5 -30q-121 0 -189.5 69t-68.5 191q0 27 2 53.5t6 50.5zM748 1077h-117l-301 348h213z" />
    <glyph glyph-name="ucircumflex" unicode="&#xfb;" horiz-adv-x="1083" 
d="M139 948h279l-86 -573q-4 -26 -6 -46.5t-2 -31.5q0 -52 21.5 -80.5t60.5 -28.5q55 0 116.5 36.5t124.5 105.5l92 618h275l-142 -948h-274l16 106q-78 -64 -154.5 -94t-160.5 -30q-121 0 -189.5 69t-68.5 191q0 27 2 53.5t6 50.5zM889 1077h-119l-129 201l-217 -201h-131
l254 348h213z" />
    <glyph glyph-name="udieresis" unicode="&#xfc;" horiz-adv-x="1083" 
d="M139 948h279l-86 -573q-4 -26 -6 -46.5t-2 -31.5q0 -52 21.5 -80.5t60.5 -28.5q55 0 116.5 36.5t124.5 105.5l92 618h275l-142 -948h-274l16 106q-78 -64 -154.5 -94t-160.5 -30q-121 0 -189.5 69t-68.5 191q0 27 2 53.5t6 50.5zM664 1241q0 46 36.5 82.5t82.5 36.5
q49 0 83.5 -35t34.5 -84q0 -54 -33 -88.5t-85 -34.5q-49 0 -84 36t-35 87zM303 1241q0 46 36.5 82.5t82.5 36.5q50 0 85.5 -35t35.5 -84q0 -53 -34 -88t-87 -35q-49 0 -84 36t-35 87z" />
    <glyph glyph-name="dagger" unicode="&#x2020;" horiz-adv-x="1116" 
d="M473 754l-356 -43l41 286l344 -45l18 447h295l-119 -447l357 45l-43 -286l-344 43l-91 -938h-292z" />
    <glyph glyph-name="degree" unicode="&#xb0;" horiz-adv-x="674" 
d="M338 1335q-73 0 -124.5 -51t-51.5 -123q0 -74 51 -125t125 -51q72 0 123 52t51 124t-51 123t-123 51zM338 1464q126 0 214.5 -89.5t88.5 -215.5q0 -125 -89 -214t-216 -89q-126 0 -213.5 88t-87.5 215t88.5 216t214.5 89z" />
    <glyph glyph-name="cent" unicode="&#xa2;" horiz-adv-x="1096" 
d="M759 983l72 219h138l-78 -239q25 -5 41.5 -9.5t25.5 -9.5l-36 -250q-16 5 -37 9.5t-71 13.5l-155 -467q63 8 123 26t117 46l-37 -277q-78 -20 -148 -31t-134 -12l-78 -240h-137l79 252q-162 32 -254 147.5t-92 287.5q0 235 166 385.5t426 150.5q26 0 41.5 -0.5t27.5 -1.5
zM678 733q-139 -6 -217 -82t-78 -205q0 -70 37.5 -120.5t101.5 -67.5z" />
    <glyph glyph-name="sterling" unicode="&#xa3;" horiz-adv-x="1096" 
d="M66 -16l159 548h-149l35 230h182q86 341 214.5 500t315.5 159q44 0 96.5 -13.5t110.5 -39.5l-37 -260q-43 30 -79 43.5t-70 13.5q-78 0 -130 -80t-118 -323h168l-35 -230h-201l-75 -253q20 3 38 4.5t33 1.5q57 0 147 -18.5t122 -18.5q50 0 104 11.5t115 35.5l-43 -297
q-41 -12 -78.5 -17.5t-73.5 -5.5q-60 0 -217 25t-256 25q-62 0 -131.5 -10.5t-146.5 -30.5z" />
    <glyph glyph-name="section" unicode="&#xa7;" horiz-adv-x="1116" 
d="M485 508l146 -80q50 21 76 55.5t26 79.5q0 38 -27 68.5t-102 70.5l-143 82q-51 -23 -77 -57t-26 -78q0 -38 27.5 -69.5t99.5 -71.5zM774 313q32 -32 48 -76t16 -104q0 -155 -103.5 -248.5t-273.5 -93.5q-92 0 -179 25t-171 75l34 222q96 -54 168 -79.5t127 -25.5
q53 0 81 23.5t28 66.5q0 63 -158 152l-66 37q-130 75 -184.5 148.5t-54.5 170.5q0 110 55 180.5t174 112.5q-32 33 -47.5 76t-15.5 102q0 154 103.5 249t269.5 95q87 0 171.5 -22.5t157.5 -65.5l-34 -221q-83 46 -151 69t-120 23q-51 0 -79.5 -24t-28.5 -68q0 -64 162 -154
l61 -34q133 -77 187.5 -148.5t54.5 -167.5q0 -111 -56.5 -182.5t-175.5 -112.5z" />
    <glyph glyph-name="bullet" unicode="&#x2022;" horiz-adv-x="1208" 
d="M307 762q0 123 87 209t210 86q122 0 208.5 -86.5t86.5 -208.5t-87.5 -209.5t-209.5 -87.5q-123 0 -209 87t-86 210z" />
    <glyph glyph-name="paragraph" unicode="&#xb6;" 
d="M983 1479v-111h-113v-1368h-151v1368h-158v-1368h-153v784q-167 6 -267 101t-100 245q0 158 107 253.5t284 95.5h551z" />
    <glyph glyph-name="germandbls" unicode="&#xdf;" horiz-adv-x="1075" 
d="M0 0l135 918q40 267 154.5 386t326.5 119q182 0 292 -92.5t110 -243.5q0 -115 -51 -194.5t-152 -122.5q91 -57 137.5 -145t46.5 -203q0 -97 -46.5 -194.5t-125.5 -161.5q-55 -45 -122 -67t-148 -22q-31 0 -64.5 3.5t-68.5 9.5l35 231q7 -1 13.5 -1.5t19.5 -0.5
q104 0 161.5 71t57.5 202q0 85 -48.5 136t-133.5 56l31 205q85 3 135 53t50 131q0 65 -38.5 105.5t-100.5 40.5q-80 0 -120.5 -58t-69.5 -248l-135 -913h-281z" />
    <glyph glyph-name="registered" unicode="&#xae;" horiz-adv-x="1706" 
d="M745 1034v-239h99q88 0 129 28t41 88q0 63 -44 93t-136 30h-89zM545 1161h323q176 0 264.5 -59.5t88.5 -177.5q0 -82 -48 -140t-133 -79l185 -369h-224l-157 338h-99v-338h-200v825zM854 1356q-127 0 -236 -44.5t-196 -131.5q-91 -91 -140 -206.5t-49 -238.5
q0 -124 46 -235.5t133 -198.5q89 -91 203 -139.5t237 -48.5q120 0 233.5 47t206.5 135q87 84 135 196t48 232q0 133 -44.5 245t-132.5 201q-90 93 -202.5 140t-241.5 47zM852 1479q154 0 290.5 -57.5t243.5 -166.5q103 -104 157 -238t54 -284q0 -152 -56 -287.5t-163 -238.5
q-107 -105 -243.5 -161t-282.5 -56q-149 0 -285 58t-243 167q-104 105 -158.5 238.5t-54.5 279.5q0 102 27 198.5t81 188.5q101 170 267 264.5t366 94.5z" />
    <glyph glyph-name="copyright" unicode="&#xa9;" horiz-adv-x="1706" 
d="M1212 897h-188q-8 70 -53 108.5t-119 38.5q-91 0 -143 -81.5t-52 -227.5q0 -147 52 -224t151 -77q73 0 117 42t53 119l193 1q-8 -139 -109 -223t-260 -84q-186 0 -293.5 118t-107.5 322q0 206 109.5 328.5t293.5 122.5q152 0 250.5 -78t105.5 -205zM854 1356
q-128 0 -239.5 -46t-198.5 -134q-89 -90 -136 -203.5t-47 -237.5q0 -125 47 -237t136 -201q88 -88 201 -135t237 -47t237.5 47t204.5 137q88 86 133.5 197t45.5 239q0 126 -46.5 238.5t-134.5 200.5q-89 89 -201 135.5t-239 46.5zM852 1479q152 0 287.5 -56t242.5 -163
q105 -105 160 -240.5t55 -286.5q0 -152 -54.5 -284t-160.5 -236q-111 -108 -248 -165.5t-282 -57.5q-147 0 -280.5 56.5t-241.5 164.5q-107 106 -163 240.5t-56 281.5q0 149 56 284.5t163 244.5q105 106 238 161.5t284 55.5z" />
    <glyph glyph-name="trademark" unicode="&#x2122;" horiz-adv-x="1706" 
d="M803 1462h196l127 -332l123 332h197v-547h-135v410l-154 -410h-61l-158 410v-410h-135v547zM207 1462h485v-112h-168v-435h-149v435h-168v112z" />
    <glyph glyph-name="acute" unicode="&#xb4;" 
d="M557 1077h-131l221 348h213z" />
    <glyph glyph-name="dieresis" unicode="&#xa8;" 
d="M633 1241q0 46 36.5 82.5t82.5 36.5q49 0 83.5 -35t34.5 -84q0 -54 -33 -88.5t-85 -34.5q-49 0 -84 36t-35 87zM272 1241q0 46 36.5 82.5t82.5 36.5q50 0 85.5 -35t35.5 -84q0 -53 -34 -88t-87 -35q-49 0 -84 36t-35 87z" />
    <glyph glyph-name="notequal" unicode="&#x2260;" horiz-adv-x="1706" 
d="M1198 1233l148 -119l-154 -192h260v-191h-389l-191 -239h580v-193h-707l-245 -309l-148 119l154 190h-252v193h377l190 239h-567v191h696z" />
    <glyph glyph-name="AE" unicode="&#xc6;" horiz-adv-x="2025" 
d="M899 557l94 625l-422 -625h328zM-141 0l944 1399h1161l-37 -248h-637l-47 -320h559l-35 -229h-559l-55 -366h784l-36 -236h-1084l51 348h-438l-233 -348h-338z" />
    <glyph glyph-name="Oslash" unicode="&#xd8;" horiz-adv-x="1577" 
d="M403 444l672 639q-44 44 -98.5 65t-124.5 21q-210 0 -354 -156.5t-144 -381.5q0 -51 12.5 -97t36.5 -90zM512 297q38 -38 86.5 -56t112.5 -18q211 0 354 153.5t143 381.5q0 40 -8.5 81t-25.5 87zM178 233q-57 76 -86 174.5t-29 221.5q0 150 52 287t149 243
q121 131 275.5 198.5t330.5 67.5q126 0 226.5 -35.5t185.5 -109.5l152 145l129 -129l-158 -149q53 -89 79.5 -183t26.5 -196q0 -161 -61.5 -304.5t-181.5 -260.5q-118 -114 -258.5 -171t-307.5 -57q-118 0 -217 31t-182 94l-153 -145l-111 143z" />
    <glyph glyph-name="infinity" unicode="&#x221e;" horiz-adv-x="1706" 
d="M942 561q45 -75 106.5 -113t139.5 -38q94 0 152.5 55.5t58.5 144.5q0 87 -54 143t-135 56q-75 0 -138 -57.5t-130 -190.5zM766 659q-44 75 -105.5 112.5t-140.5 37.5q-94 0 -152.5 -56t-58.5 -145q0 -85 54 -141.5t135 -56.5q75 0 138 58t130 191zM858 457
q-68 -132 -146.5 -195t-174.5 -63q-140 0 -236 117.5t-96 293.5q0 184 85.5 297t223.5 113q92 0 170 -60t164 -198q68 132 148 196t175 64q139 0 235.5 -118.5t96.5 -293.5q0 -183 -86 -296t-223 -113q-93 0 -170.5 58.5t-165.5 197.5z" />
    <glyph glyph-name="plusminus" unicode="&#xb1;" horiz-adv-x="1706" 
d="M254 197h1198v-199h-1198v199zM752 1223h202v-326h498v-199h-498v-325h-202v325h-498v199h498v326z" />
    <glyph glyph-name="lessequal" unicode="&#x2264;" horiz-adv-x="1706" 
d="M258 195h1192v-197h-1192v197zM1448 1241v-209l-834 -264l834 -262v-209l-1190 385v174z" />
    <glyph glyph-name="greaterequal" unicode="&#x2265;" horiz-adv-x="1706" 
d="M258 195h1192v-197h-1192v197zM260 1241l1188 -385v-174l-1188 -385v209l832 262l-832 264v209z" />
    <glyph glyph-name="yen" unicode="&#xa5;" horiz-adv-x="1190" 
d="M1225 1399l-246 -385h205l-15 -123h-266l-96 -146h338l-15 -124h-401l-27 -41l-81 -580h-277l82 588l-12 33h-385l14 124h326l-52 146h-247l14 123h188l-141 385h275l192 -549l336 549h291z" />
    <glyph glyph-name="mu" unicode="&#xb5;" horiz-adv-x="1249" 
d="M205 1092h289l-76 -435q-15 -80 -23 -151.5t-8 -116.5q0 -93 42 -138.5t128 -45.5q100 0 155.5 82t92.5 291l90 514h289l-193 -1092h-268l18 117q-42 -78 -93.5 -114t-121.5 -36q-67 0 -119 29.5t-94 91.5l-90 -526h-286z" />
    <glyph glyph-name="partialdiff" unicode="&#x2202;" horiz-adv-x="1094" 
d="M762 662q19 99 29 188.5t10 155.5q0 100 -26 157.5t-70 57.5t-146 -73t-160 -73q-42 0 -71 30t-29 73q0 64 86.5 118t210.5 54q192 0 309 -161.5t117 -432.5q0 -339 -156.5 -560t-396.5 -221q-171 0 -282 114.5t-111 291.5q0 198 116 329.5t287 131.5q102 0 170 -43.5
t113 -136.5zM700 518q0 116 -38.5 178t-110.5 62q-101 0 -167.5 -134t-66.5 -341q0 -117 38.5 -177.5t111.5 -60.5q101 0 167 133.5t66 339.5z" />
    <glyph glyph-name="summation" unicode="&#x2211;" horiz-adv-x="1470" 
d="M66 1473h1308v-265h-878l620 -645l-622 -690h933v-266h-1386v172l698 772l-673 690v232z" />
    <glyph glyph-name="product" unicode="&#x220f;" horiz-adv-x="1612" 
d="M150 1473h1308v-1866h-344v1577h-620v-1577h-344v1866z" />
    <glyph glyph-name="pi" unicode="&#x3c0;" horiz-adv-x="1319" 
d="M1354 1092l-39 -224h-176l-154 -868h-287l152 868h-238l-151 -868h-287l152 868h-25q-55 0 -84 -31t-39 -99l-213 -1q29 199 123 277t311 78h955z" />
    <glyph glyph-name="integral" unicode="&#x222b;" horiz-adv-x="1186" 
d="M342 -252q102 0 121 639q3 136 6 211q16 508 123 732t328 224q98 0 157.5 -49t59.5 -129q0 -60 -38 -96.5t-100 -36.5q-46 0 -77 24t-41 68q-5 20 -7 54q-3 46 -30 47q-99 0 -119 -633l-6 -178q-11 -296 -31 -444.5t-59 -250.5q-56 -148 -148.5 -225.5t-214.5 -77.5
q-96 0 -156.5 49t-60.5 127q0 62 39 99t105 37q50 0 85 -31.5t35 -71.5q0 -58 6 -73t23 -15z" />
    <glyph glyph-name="ordfeminine" unicode="&#xaa;" horiz-adv-x="817" 
d="M485 926l49 313q-7 1 -15.5 1.5t-24.5 0.5q-125 0 -198 -66.5t-73 -181.5q0 -56 28 -88.5t77 -32.5q37 0 75.5 13.5t81.5 40.5zM455 735l8 51q-52 -32 -99.5 -47.5t-97.5 -15.5q-114 0 -181 73.5t-67 198.5q0 89 37 166t105 131q73 58 172 82.5t317 24.5h117l-104 -664
h-207z" />
    <glyph glyph-name="ordmasculine" unicode="&#xba;" horiz-adv-x="815" 
d="M16 1040q0 159 116.5 266t289.5 107q146 0 239 -86.5t93 -222.5q0 -164 -116 -273.5t-290 -109.5q-151 0 -241.5 87t-90.5 232zM410 1253q-74 0 -126.5 -63t-52.5 -156q0 -71 36 -112t98 -41q72 0 123 62t51 155q0 70 -35.5 112.5t-93.5 42.5z" />
    <glyph glyph-name="Omega" unicode="&#x3a9;" horiz-adv-x="1575" 
d="M1227 256h291v-256h-609v291q126 86 192 217.5t66 296.5q0 203 -101.5 319.5t-279.5 116.5q-177 0 -278.5 -116.5t-101.5 -319.5q0 -164 66 -296.5t192 -217.5v-291h-609v256h291q-126 121 -187 260t-61 303q0 313 188 501.5t500 188.5q313 0 501 -188.5t188 -501.5
q0 -164 -61 -303t-187 -260z" />
    <glyph glyph-name="ae" unicode="&#xe6;" horiz-adv-x="1460" 
d="M809 604h293v21q0 63 -32.5 99t-90.5 36q-62 0 -108 -42t-62 -114zM461 217l26 174q-120 -18 -182.5 -56t-62.5 -93q0 -33 22.5 -53.5t59.5 -20.5q32 0 66 12t71 37zM588 119q-83 -71 -164 -103t-176 -32q-124 0 -199.5 61t-75.5 160q0 156 145 251.5t400 104.5
q11 35 16 58t5 40q0 44 -27.5 64t-85.5 20q-54 0 -115.5 -21t-183.5 -89l39 252q75 40 153.5 60t159.5 20q86 0 147 -22t101 -66q51 43 118.5 65.5t145.5 22.5q181 0 285 -110t104 -302q0 -22 -4 -50t-12 -65h-588q0 -4 -1 -12t-1 -12q0 -99 65 -155t177 -56q64 0 133 23.5
t164 78.5l-37 -246q-115 -45 -184 -60t-138 -15q-111 0 -196.5 31.5t-169.5 103.5z" />
    <glyph glyph-name="oslash" unicode="&#xf8;" horiz-adv-x="1106" 
d="M309 377l350 330q-24 22 -52 33.5t-60 11.5q-100 0 -173 -89t-73 -210q0 -17 2 -36.5t6 -39.5zM731 575l-354 -331q25 -24 54 -34.5t69 -10.5q104 0 171.5 81t67.5 207q0 22 -2 44.5t-6 43.5zM94 170q-36 56 -53.5 123t-17.5 147q0 229 155.5 380t392.5 151
q86 0 155.5 -21.5t125.5 -64.5l117 114l100 -108l-119 -109q37 -56 54.5 -119.5t17.5 -138.5q0 -233 -155.5 -388.5t-387.5 -155.5q-84 0 -158.5 20.5t-134.5 60.5l-120 -114l-101 106z" />
    <glyph glyph-name="questiondown" unicode="&#xbf;" horiz-adv-x="829" 
d="M666 960q-4 -88 -38 -170t-104 -169q-29 -37 -82 -97q-108 -121 -108 -174q0 -45 31 -72.5t81 -27.5q51 0 122.5 29.5t166.5 89.5l-43 -299q-77 -49 -153 -72t-156 -23q-149 0 -244.5 96t-95.5 246q0 162 200 364q16 16 25 26q83 84 121 142.5t47 110.5h230zM733 1255
q0 -70 -48 -119t-118 -49t-119 49.5t-49 118.5t49.5 117.5t118.5 48.5t117.5 -48t48.5 -118z" />
    <glyph glyph-name="exclamdown" unicode="&#xa1;" horiz-adv-x="672" 
d="M469 956q-12 -204 -23.5 -449.5t-15.5 -279.5q-16 -129 -59.5 -190.5t-120.5 -61.5q-64 0 -99.5 43.5t-35.5 120.5q0 80 126 580l60 237h168zM592 1253q0 -69 -49 -117.5t-119 -48.5t-118 48.5t-48 117.5q0 71 48 119.5t118 48.5t119 -49t49 -119z" />
    <glyph glyph-name="logicalnot" unicode="&#xac;" horiz-adv-x="1706" 
d="M254 864h1198v-502h-199v306h-999v196z" />
    <glyph glyph-name="radical" unicode="&#x221a;" horiz-adv-x="1346" 
d="M1141 1694h207v-129h-103l-592 -1606h-100l-311 858l-140 -51l-30 113l331 116l236 -661z" />
    <glyph glyph-name="florin" unicode="&#x192;" horiz-adv-x="1096" 
d="M29 -416l30 236q18 -4 37 -6t39 -2q70 0 107 68.5t65 285.5l66 504h-160l29 209h155q25 282 125 412t291 130q52 0 97 -7t89 -21l-30 -231q-33 5 -53.5 7t-34.5 2q-70 0 -109 -69.5t-55 -222.5h178l-27 -209h-178l-65 -525q-42 -334 -136.5 -458.5t-289.5 -124.5
q-31 0 -73 5.5t-97 16.5z" />
    <glyph glyph-name="approxequal" unicode="&#x2248;" horiz-adv-x="1706" 
d="M1530 596v-219q-106 -72 -198 -105.5t-181 -33.5q-95 0 -286.5 66.5t-301.5 66.5q-84 0 -174.5 -37t-210.5 -121v219q111 73 206.5 108t180.5 35q124 0 315.5 -65.5t274.5 -65.5q86 0 174 35.5t201 116.5zM1530 1008v-220q-106 -71 -196.5 -104t-180.5 -33
q-94 0 -286 65.5t-304 65.5q-82 0 -170 -35t-215 -122v219q107 71 204 107t183 36q125 0 316.5 -65.5t273.5 -65.5q84 0 171 35t204 117z" />
    <glyph glyph-name="Delta" unicode="&#x2206;" horiz-adv-x="1427" 
d="M713 1110l-326 -854h653zM563 1473h301l563 -1473h-1427z" />
    <glyph glyph-name="guillemotleft" unicode="&#xab;" horiz-adv-x="993" 
d="M438 461l271 332h235l-274 -332l182 -305h-231zM213 156l-182 305l248 332h227l-252 -332l182 -305h-223z" />
    <glyph glyph-name="guillemotright" unicode="&#xbb;" horiz-adv-x="993" 
d="M705 793l182 -306l-250 -331h-227l254 331l-183 306h224zM477 487l-268 -331h-236l273 331l-183 306h232z" />
    <glyph glyph-name="ellipsis" unicode="&#x2026;" horiz-adv-x="2048" 
d="M105 147q0 71 48 119.5t118 48.5q69 0 118.5 -49t49.5 -119q0 -68 -49.5 -116.5t-118.5 -48.5t-117.5 48t-48.5 117zM787 147q0 71 48 119.5t118 48.5q69 0 118.5 -49t49.5 -119q0 -68 -49.5 -116.5t-118.5 -48.5t-117.5 48t-48.5 117zM1471 147q0 71 48 119.5t118 48.5
q69 0 118.5 -49t49.5 -119q0 -68 -49.5 -116.5t-118.5 -48.5t-117.5 48t-48.5 117z" />
    <glyph glyph-name="nonbreakingspace" unicode="&#xa0;" horiz-adv-x="1096" 
 />
    <glyph glyph-name="Agrave" unicode="&#xc0;" horiz-adv-x="1198" 
d="M449 510h317l-80 534zM-106 0l667 1399h342l236 -1399h-295l-47 305h-437l-133 -305h-333zM893 1532h-117l-301 348h213z" />
    <glyph glyph-name="Atilde" unicode="&#xc3;" horiz-adv-x="1198" 
d="M449 510h317l-80 534zM-106 0l667 1399h342l236 -1399h-295l-47 305h-437l-133 -305h-333zM1079 1825q-29 -109 -80.5 -161t-130.5 -52q-20 0 -40 3t-40 9l-57 19q-15 4 -29 6t-28 2q-34 0 -57.5 -19.5t-34.5 -58.5h-107q30 111 82 164t131 53q19 0 40 -3t44 -9l57 -18
q27 -7 36.5 -9t15.5 -2q33 0 56.5 19.5t35.5 56.5h106z" />
    <glyph glyph-name="Otilde" unicode="&#xd5;" horiz-adv-x="1577" 
d="M850 1161q-203 0 -337 -148.5t-134 -373.5q0 -186 92.5 -292.5t253.5 -106.5q206 0 339.5 150.5t133.5 385.5q0 168 -98.5 276.5t-249.5 108.5zM63 610q0 165 51 302t154 249q115 126 269.5 193t326.5 67q124 0 226.5 -30.5t183.5 -92.5q115 -85 177 -218t62 -292
q0 -162 -51 -302.5t-149 -245.5q-119 -130 -271 -196.5t-331 -66.5q-125 0 -226 30.5t-182 90.5q-112 85 -176 221t-64 291zM1245 1825q-29 -109 -80.5 -161t-130.5 -52q-20 0 -40 3t-40 9l-57 19q-15 4 -29 6t-28 2q-34 0 -57.5 -19.5t-34.5 -58.5h-107q30 111 82 164
t131 53q19 0 40 -3t44 -9l57 -18q27 -7 36.5 -9t15.5 -2q33 0 56.5 19.5t35.5 56.5h106z" />
    <glyph glyph-name="OE" unicode="&#x152;" horiz-adv-x="2120" 
d="M1008 240l137 923h-39h-76q-326 0 -495.5 -131.5t-169.5 -384.5q0 -215 120 -311t392 -96h86h45zM2011 0h-1079q-310 0 -434 28.5t-211 96.5q-108 84 -164.5 207.5t-56.5 273.5q0 162 50.5 299.5t147.5 239.5q128 135 312.5 194.5t490.5 59.5h991l-35 -236h-579l-47 -325
h522l-35 -236h-522l-55 -362h739z" />
    <glyph glyph-name="oe" unicode="&#x153;" horiz-adv-x="1614" 
d="M954 604h295v21q0 63 -33.5 99t-91.5 36q-61 0 -107 -42t-63 -114zM315 395q0 -82 37.5 -130t100.5 -48q83 0 138.5 95.5t55.5 242.5q0 84 -36 131t-101 47q-81 0 -138 -96.5t-57 -241.5zM760 92q-82 -56 -157.5 -83t-151.5 -27q-184 0 -304 128.5t-120 327.5
q0 230 139.5 378.5t353.5 148.5q87 0 159.5 -28.5t141.5 -88.5q87 61 164.5 89t159.5 28q171 0 276 -113t105 -299q0 -30 -3 -61.5t-10 -65.5h-593q-3 -18 -4 -26.5t-1 -14.5q0 -89 55.5 -135.5t159.5 -46.5q79 0 163.5 23t172.5 69l-47 -252q-87 -31 -169 -46t-156 -15
q-102 0 -183 26.5t-151 83.5z" />
    <glyph glyph-name="endash" unicode="&#x2013;" 
d="M-35 375l29 192h999l-28 -192h-1000z" />
    <glyph glyph-name="emdash" unicode="&#x2014;" horiz-adv-x="2048" 
d="M-35 375l29 192h2048l-29 -192h-2048z" />
    <glyph glyph-name="quotedblleft" unicode="&#x201c;" horiz-adv-x="1063" 
d="M588 1421l-29 -129q-63 -17 -110 -53.5t-74 -91.5q55 -26 82.5 -64t27.5 -88q0 -72 -49.5 -121t-124.5 -49q-87 0 -144.5 63.5t-57.5 160.5q0 151 136 258.5t343 113.5zM1104 1421l-29 -129q-63 -17 -110 -53.5t-74 -91.5q55 -26 82.5 -64t27.5 -88q0 -72 -49.5 -121
t-124.5 -49q-87 0 -144.5 63.5t-57.5 160.5q0 151 136 258.5t343 113.5z" />
    <glyph glyph-name="quotedblright" unicode="&#x201d;" horiz-adv-x="1063" 
d="M86 825l29 129q63 17 110 54t74 92q-54 25 -82.5 64t-28.5 89q0 73 49.5 120.5t124.5 47.5q88 0 144.5 -62t56.5 -159q0 -157 -133 -263t-344 -112zM602 825l29 129q63 17 108.5 53.5t73.5 92.5q-54 25 -81 64t-27 89q0 73 49 120.5t125 47.5q87 0 143.5 -62t56.5 -159
q0 -157 -133 -263t-344 -112z" />
    <glyph glyph-name="quoteleft" unicode="&#x2018;" horiz-adv-x="547" 
d="M588 1421l-29 -129q-63 -17 -110 -53.5t-74 -91.5q54 -26 81 -64.5t27 -89.5q0 -73 -48.5 -120.5t-123.5 -47.5q-87 0 -144.5 63.5t-57.5 160.5q0 156 133.5 261t345.5 111z" />
    <glyph glyph-name="quoteright" unicode="&#x2019;" horiz-adv-x="547" 
d="M86 825l29 129q63 17 110 54t74 92q-54 25 -82.5 64t-28.5 89q0 73 50 121.5t124 48.5q87 0 144 -63t57 -160q0 -157 -133 -263t-344 -112z" />
    <glyph glyph-name="divide" unicode="&#xf7;" horiz-adv-x="1706" 
d="M854 369q62 0 107 -45t45 -107q0 -61 -45 -105t-107 -44q-63 0 -107.5 43t-44.5 106t44.5 107.5t107.5 44.5zM254 711h1198v-199h-1198v199zM854 1155q62 0 107 -44.5t45 -106.5q0 -63 -44.5 -107.5t-107.5 -44.5t-107.5 44.5t-44.5 107.5t44.5 107t107.5 44z" />
    <glyph glyph-name="lozenge" unicode="&#x25ca;" horiz-adv-x="1012" 
d="M506 1409l-385 -817l385 -825l385 825zM506 1653l500 -1061l-500 -1069l-500 1069z" />
    <glyph glyph-name="ydieresis" unicode="&#xff;" horiz-adv-x="897" 
d="M238 90l-295 858h278l182 -526l256 526h285l-688 -1413h-285zM570 1241q0 46 36.5 82.5t82.5 36.5q49 0 83.5 -35t34.5 -84q0 -54 -33 -88.5t-85 -34.5q-49 0 -84 36t-35 87zM209 1241q0 46 36.5 82.5t82.5 36.5q50 0 85.5 -35t35.5 -84q0 -53 -34 -88t-87 -35
q-49 0 -84 36t-35 87z" />
    <glyph glyph-name="Ydieresis" unicode="&#x178;" horiz-adv-x="1100" 
d="M299 0l82 588l-295 811h301l178 -527l320 527h321l-522 -819l-82 -580h-303zM737 1696q0 46 36.5 82.5t82.5 36.5q49 0 83.5 -35t34.5 -84q0 -54 -33 -88.5t-85 -34.5q-49 0 -84 36t-35 87zM376 1696q0 46 36.5 82.5t82.5 36.5q50 0 85.5 -35t35.5 -84q0 -53 -34 -88
t-87 -35q-49 0 -84 36t-35 87z" />
    <glyph glyph-name="fraction" unicode="&#x2215;" horiz-adv-x="342" 
d="M508 1421h174l-854 -1446h-170z" />
    <glyph glyph-name="currency" unicode="&#xa4;" horiz-adv-x="1096" 
d="M1141 1372l-41 -256q-86 25 -147.5 34t-127.5 9q-119 0 -197.5 -63.5t-121.5 -196.5h491l-39 -123h-483q-8 -43 -13 -79t-7 -66h456l-41 -123h-421q5 -137 56 -202.5t152 -65.5q89 0 170.5 38t167.5 119l-41 -299q-88 -63 -182.5 -93t-210.5 -30q-195 0 -299 140.5
t-104 392.5h-160l41 123h125q3 37 7.5 73t10.5 72h-155l39 123h145q71 250 226.5 386t369.5 136q81 0 158.5 -11t175.5 -38z" />
    <glyph glyph-name="guilsinglleft" unicode="&#x2039;" horiz-adv-x="575" 
d="M31 461l270 332h234l-273 -332l182 -305h-231z" />
    <glyph glyph-name="guilsinglright" unicode="&#x203a;" horiz-adv-x="575" 
d="M477 487l-268 -331h-236l273 331l-183 306h232z" />
    <glyph glyph-name="fi" unicode="&#xf001;" horiz-adv-x="1135" 
d="M-12 -406l168 1145h-174l32 209h172q42 230 170.5 348.5t335.5 118.5q169 0 275 -91.5t106 -233.5q0 -18 -0.5 -29.5t-1.5 -19.5l-266 -1v11q0 62 -35.5 96.5t-97.5 34.5q-81 0 -133 -60t-70 -174h190l-30 -209h-191l-168 -1145h-282zM649 0l139 948h267l-137 -948h-269z
" />
    <glyph glyph-name="fi" unicode="&#xfb01;" horiz-adv-x="1135" 
d="M-12 -406l168 1145h-174l32 209h172q42 230 170.5 348.5t335.5 118.5q169 0 275 -91.5t106 -233.5q0 -18 -0.5 -29.5t-1.5 -19.5l-266 -1v11q0 62 -35.5 96.5t-97.5 34.5q-81 0 -133 -60t-70 -174h190l-30 -209h-191l-168 -1145h-282zM649 0l139 948h267l-137 -948h-269z
" />
    <glyph glyph-name="fl" unicode="&#xf002;" horiz-adv-x="1130" 
d="M188 948q40 234 147 351.5t279 117.5q32 0 70 -5.5t86 -16.5l-33 -227q-21 4 -40.5 7t-34.5 3q-81 0 -130 -57t-67 -173h194l-30 -205h-195l-176 -1151h-274l174 1151h-176l32 205h174zM639 0l209 1399h276l-209 -1399h-276z" />
    <glyph glyph-name="fl" unicode="&#xfb02;" horiz-adv-x="1130" 
d="M188 948q40 234 147 351.5t279 117.5q32 0 70 -5.5t86 -16.5l-33 -227q-21 4 -40.5 7t-34.5 3q-81 0 -130 -57t-67 -173h194l-30 -205h-195l-176 -1151h-274l174 1151h-176l32 205h174zM639 0l209 1399h276l-209 -1399h-276z" />
    <glyph glyph-name="daggerdbl" unicode="&#x2021;" horiz-adv-x="1116" 
d="M399 606l99 225l-396 -55l43 281l377 -49l-4 391h301l-121 -391l392 49l-41 -281l-377 55l28 -225l-96 -223l393 55l-41 -280l-376 49l4 -391h-303l122 391l-391 -49l41 280l377 -55z" />
    <glyph glyph-name="periodcentered" unicode="&#xb7;" horiz-adv-x="547" 
d="M94 698q0 75 52 128t126 53q77 0 129 -52.5t52 -128.5q0 -74 -53 -126t-128 -52q-74 0 -126 52t-52 126z" />
    <glyph glyph-name="quotesinglbase" unicode="&#x201a;" horiz-adv-x="547" 
d="M-80 -283l29 129q63 17 108.5 53.5t73.5 92.5q-54 25 -81 63t-27 88q0 73 49.5 121.5t124.5 48.5q87 0 143.5 -63t56.5 -160q0 -156 -132.5 -261.5t-344.5 -111.5z" />
    <glyph glyph-name="quotedblbase" unicode="&#x201e;" horiz-adv-x="1063" 
d="M-80 -283l29 129q63 17 108.5 53.5t73.5 92.5q-54 25 -81 63t-27 88q0 73 49.5 121.5t124.5 48.5q87 0 143.5 -63t56.5 -160q0 -156 -132.5 -261.5t-344.5 -111.5zM434 -283l29 129q63 17 110 54t74 92q-54 25 -81 63t-27 88q0 73 48.5 121.5t123.5 48.5q87 0 144.5 -63
t57.5 -160q0 -156 -133.5 -261.5t-345.5 -111.5z" />
    <glyph glyph-name="perthousand" unicode="&#x2030;" horiz-adv-x="2939" 
d="M1331 391q0 -80 55.5 -135t135.5 -55q79 0 134.5 55.5t55.5 134.5q0 80 -55 135.5t-135 55.5t-135.5 -55.5t-55.5 -135.5zM2054 391q0 175 121.5 296.5t296.5 121.5q174 0 295 -121.5t121 -296.5q0 -173 -121 -294.5t-295 -121.5q-175 0 -296.5 121t-121.5 295zM2277 391
q0 -80 55.5 -135t135.5 -55q79 0 134.5 55.5t55.5 134.5q0 80 -55 135.5t-135 55.5t-135.5 -55.5t-55.5 -135.5zM1104 391q0 175 121.5 296.5t296.5 121.5q174 0 295.5 -121.5t121.5 -296.5q0 -173 -122 -294.5t-295 -121.5q-175 0 -296.5 121t-121.5 295zM440 -25l944 1446
h168l-948 -1446h-164zM279 1004q0 -80 55 -135.5t135 -55.5q79 0 134.5 55.5t55.5 135.5q0 79 -55 134.5t-135 55.5t-135 -55.5t-55 -134.5zM51 1004q0 175 121.5 296t296.5 121q174 0 296 -121.5t122 -295.5t-122 -295t-296 -121q-175 0 -296.5 121t-121.5 295z" />
    <glyph glyph-name="Acircumflex" unicode="&#xc2;" horiz-adv-x="1198" 
d="M449 510h317l-80 534zM-106 0l667 1399h342l236 -1399h-295l-47 305h-437l-133 -305h-333zM1034 1532h-119l-129 201l-217 -201h-131l254 348h213z" />
    <glyph glyph-name="Ecircumflex" unicode="&#xca;" horiz-adv-x="1169" 
d="M29 0l209 1399h870l-37 -248h-569l-47 -320h503l-36 -237h-502l-55 -365h729l-35 -229h-1030zM987 1532h-119l-129 201l-217 -201h-131l254 348h213z" />
    <glyph glyph-name="Aacute" unicode="&#xc1;" horiz-adv-x="1198" 
d="M449 510h317l-80 534zM-106 0l667 1399h342l236 -1399h-295l-47 305h-437l-133 -305h-333zM733 1532h-131l221 348h213z" />
    <glyph glyph-name="Edieresis" unicode="&#xcb;" horiz-adv-x="1169" 
d="M29 0l209 1399h870l-37 -248h-569l-47 -320h503l-36 -237h-502l-55 -365h729l-35 -229h-1030zM762 1696q0 46 36.5 82.5t82.5 36.5q49 0 83.5 -35t34.5 -84q0 -54 -33 -88.5t-85 -34.5q-49 0 -84 36t-35 87zM401 1696q0 46 36.5 82.5t82.5 36.5q50 0 85.5 -35t35.5 -84
q0 -53 -34 -88t-87 -35q-49 0 -84 36t-35 87z" />
    <glyph glyph-name="Egrave" unicode="&#xc8;" horiz-adv-x="1169" 
d="M29 0l209 1399h870l-37 -248h-569l-47 -320h503l-36 -237h-502l-55 -365h729l-35 -229h-1030zM846 1532h-117l-301 348h213z" />
    <glyph glyph-name="Iacute" unicode="&#xcd;" horiz-adv-x="596" 
d="M39 0l207 1399h311l-209 -1399h-309zM410 1532h-131l221 348h213z" />
    <glyph glyph-name="Icircumflex" unicode="&#xce;" horiz-adv-x="596" 
d="M39 0l207 1399h311l-209 -1399h-309zM711 1532h-119l-129 201l-217 -201h-131l254 348h213z" />
    <glyph glyph-name="Idieresis" unicode="&#xcf;" horiz-adv-x="596" 
d="M39 0l207 1399h311l-209 -1399h-309zM486 1696q0 46 36.5 82.5t82.5 36.5q49 0 83.5 -35t34.5 -84q0 -54 -33 -88.5t-85 -34.5q-49 0 -84 36t-35 87zM125 1696q0 46 36.5 82.5t82.5 36.5q50 0 85.5 -35t35.5 -84q0 -53 -34 -88t-87 -35q-49 0 -84 36t-35 87z" />
    <glyph glyph-name="Igrave" unicode="&#xcc;" horiz-adv-x="596" 
d="M39 0l207 1399h311l-209 -1399h-309zM570 1532h-117l-301 348h213z" />
    <glyph glyph-name="Oacute" unicode="&#xd3;" horiz-adv-x="1577" 
d="M850 1161q-203 0 -337 -148.5t-134 -373.5q0 -186 92.5 -292.5t253.5 -106.5q206 0 339.5 150.5t133.5 385.5q0 168 -98.5 276.5t-249.5 108.5zM63 610q0 165 51 302t154 249q115 126 269.5 193t326.5 67q124 0 226.5 -30.5t183.5 -92.5q115 -85 177 -218t62 -292
q0 -162 -51 -302.5t-149 -245.5q-119 -130 -271 -196.5t-331 -66.5q-125 0 -226 30.5t-182 90.5q-112 85 -176 221t-64 291zM899 1532h-131l221 348h213z" />
    <glyph glyph-name="Ocircumflex" unicode="&#xd4;" horiz-adv-x="1577" 
d="M850 1161q-203 0 -337 -148.5t-134 -373.5q0 -186 92.5 -292.5t253.5 -106.5q206 0 339.5 150.5t133.5 385.5q0 168 -98.5 276.5t-249.5 108.5zM63 610q0 165 51 302t154 249q115 126 269.5 193t326.5 67q124 0 226.5 -30.5t183.5 -92.5q115 -85 177 -218t62 -292
q0 -162 -51 -302.5t-149 -245.5q-119 -130 -271 -196.5t-331 -66.5q-125 0 -226 30.5t-182 90.5q-112 85 -176 221t-64 291zM1200 1532h-119l-129 201l-217 -201h-131l254 348h213z" />
    <glyph glyph-name="apple" unicode="&#xf000;" horiz-adv-x="1618" 
d="M836 1216q-1 6 -1.5 14t-0.5 23q0 124 95 229.5t236 131.5q1 -10 1.5 -23t0.5 -39q0 -131 -103.5 -234.5t-203.5 -103.5h-8q-3 0 -7.5 1t-8.5 1zM1505 403q-114 -247 -205 -342.5t-204 -95.5q-50 0 -131.5 33t-122.5 33q-45 0 -131 -33t-127 -33q-64 0 -128.5 44
t-129.5 132q-102 140 -157.5 295.5t-55.5 300.5q0 219 125 356.5t323 137.5q68 0 155 -34t124 -34q34 0 121.5 35t152.5 35q110 0 198 -40t161 -124q-102 -65 -151.5 -145.5t-49.5 -182.5q0 -113 60 -200t173 -138z" />
    <glyph glyph-name="Ograve" unicode="&#xd2;" horiz-adv-x="1577" 
d="M850 1161q-203 0 -337 -148.5t-134 -373.5q0 -186 92.5 -292.5t253.5 -106.5q206 0 339.5 150.5t133.5 385.5q0 168 -98.5 276.5t-249.5 108.5zM63 610q0 165 51 302t154 249q115 126 269.5 193t326.5 67q124 0 226.5 -30.5t183.5 -92.5q115 -85 177 -218t62 -292
q0 -162 -51 -302.5t-149 -245.5q-119 -130 -271 -196.5t-331 -66.5q-125 0 -226 30.5t-182 90.5q-112 85 -176 221t-64 291zM1059 1532h-117l-301 348h213z" />
    <glyph glyph-name="Uacute" unicode="&#xda;" horiz-adv-x="1575" 
d="M246 1399h305l-100 -668q-12 -84 -17.5 -137t-5.5 -84q0 -128 82 -198t231 -70q163 0 247 96t120 334l109 727h313l-117 -772q-29 -194 -75.5 -303.5t-127.5 -182.5q-90 -80 -220 -124t-281 -44q-270 0 -426 142.5t-156 388.5q0 46 4 99t12 112zM899 1532h-131l221 348
h213z" />
    <glyph glyph-name="Ucircumflex" unicode="&#xdb;" horiz-adv-x="1575" 
d="M246 1399h305l-100 -668q-12 -84 -17.5 -137t-5.5 -84q0 -128 82 -198t231 -70q163 0 247 96t120 334l109 727h313l-117 -772q-29 -194 -75.5 -303.5t-127.5 -182.5q-90 -80 -220 -124t-281 -44q-270 0 -426 142.5t-156 388.5q0 46 4 99t12 112zM1200 1532h-119l-129 201
l-217 -201h-131l254 348h213z" />
    <glyph glyph-name="Ugrave" unicode="&#xd9;" horiz-adv-x="1575" 
d="M246 1399h305l-100 -668q-12 -84 -17.5 -137t-5.5 -84q0 -128 82 -198t231 -70q163 0 247 96t120 334l109 727h313l-117 -772q-29 -194 -75.5 -303.5t-127.5 -182.5q-90 -80 -220 -124t-281 -44q-270 0 -426 142.5t-156 388.5q0 46 4 99t12 112zM1059 1532h-117l-301 348
h213z" />
    <glyph glyph-name="dotlessi" unicode="&#x131;" horiz-adv-x="496" 
d="M12 0l142 948h270l-141 -948h-271z" />
    <glyph glyph-name="circumflex" unicode="&#x2c6;" 
d="M858 1077h-119l-129 201l-217 -201h-131l254 348h213z" />
    <glyph glyph-name="tilde" unicode="&#x2dc;" 
d="M903 1370q-29 -109 -80.5 -161t-130.5 -52q-20 0 -40 3t-40 9l-57 19q-15 4 -29 6t-28 2q-34 0 -57.5 -19.5t-34.5 -58.5h-107q30 111 82 164t131 53q19 0 40 -3t44 -9l57 -18q27 -7 36.5 -9t15.5 -2q33 0 56.5 19.5t35.5 56.5h106z" />
    <glyph glyph-name="macron" unicode="&#xaf;" 
d="M891 1315l-23 -148h-555l23 148h555z" />
    <glyph glyph-name="breve" unicode="&#x2d8;" 
d="M332 1397h112v-6q0 -73 35 -105.5t115 -32.5q82 0 137 35.5t86 108.5h117q-42 -145 -131 -218t-225 -73q-126 0 -187 61.5t-61 186.5q0 17 0.5 26.5t1.5 16.5z" />
    <glyph glyph-name="dotaccent" unicode="&#x2d9;" 
d="M471 1241q0 51 39 90t90 39q54 0 92.5 -38t38.5 -91q0 -57 -37 -95t-94 -38q-53 0 -91 39t-38 94z" />
    <glyph glyph-name="ring" unicode="&#x2da;" 
d="M494 1317q0 -52 38 -90.5t89 -38.5q52 0 89.5 37.5t37.5 91.5t-37 90.5t-90 36.5t-90 -37t-37 -90zM362 1317q0 108 75 183t184 75q108 0 183 -75t75 -183t-75 -183t-183 -75t-183.5 75t-75.5 183z" />
    <glyph glyph-name="cedilla" unicode="&#xb8;" 
d="M109 -426l43 111q67 -24 123 -35.5t100 -11.5q55 0 87 24t32 66q0 41 -36 58t-126 17h-39l67 197h91l-33 -94h8q112 0 169.5 -43.5t57.5 -126.5q0 -102 -66 -158.5t-184 -56.5q-56 0 -126 12.5t-168 40.5z" />
    <glyph glyph-name="hungarumlaut" unicode="&#x2dd;" 
d="M821 1427h189l-271 -350h-104zM532 1427h187l-232 -350h-104z" />
    <glyph glyph-name="ogonek" unicode="&#x2db;" 
d="M508 0q-67 -58 -98 -109t-31 -104q0 -43 20 -61.5t68 -18.5h102l-22 -156h-84q-118 0 -174 44t-56 137q0 64 46.5 129.5t142.5 138.5h86z" />
    <glyph glyph-name="caron" unicode="&#x2c7;" 
d="M332 1425h117l131 -200l217 200h131l-256 -348h-211z" />
    <glyph glyph-name="Lslash" unicode="&#x141;" horiz-adv-x="1102" 
d="M47 0l80 535l-162 -93l35 224l160 92l96 641h303l-78 -531l297 170l-33 -227l-299 -170l-61 -412h635l-33 -229h-940z" />
    <glyph glyph-name="lslash" unicode="&#x142;" horiz-adv-x="524" 
d="M27 0l88 588l-135 -78l24 184l139 78l93 627h270l-80 -535l135 76l-24 -182l-140 -80l-100 -678h-270z" />
    <glyph glyph-name="Scaron" unicode="&#x160;" horiz-adv-x="1083" 
d="M57 365q124 -73 218 -106.5t174 -33.5q92 0 150 44.5t58 113.5q0 91 -199 215l-67 43q-131 84 -194.5 173t-63.5 187q0 181 142 300.5t360 119.5q95 0 191 -24.5t196 -75.5l-47 -252q-96 53 -178.5 79t-153.5 26q-90 0 -146.5 -40t-56.5 -102q0 -75 158 -176
q71 -45 111 -74q143 -102 195 -183t52 -185q0 -194 -132.5 -316.5t-344.5 -122.5q-121 0 -235.5 35.5t-231.5 108.5zM428 1880h117l131 -200l217 200h131l-256 -348h-211z" />
    <glyph glyph-name="scaron" unicode="&#x161;" horiz-adv-x="754" 
d="M-29 68l31 215l10 -4q197 -74 281 -74q33 0 55.5 16.5t22.5 40.5q0 42 -86 106q-51 38 -80 64q-91 82 -122.5 135.5t-31.5 116.5q0 125 95.5 204t246.5 79q73 0 146 -20t151 -60l-16 -225q-84 41 -152 63.5t-108 22.5q-31 0 -51.5 -14t-20.5 -36q0 -43 99 -117
q51 -39 79 -63q76 -63 104.5 -115t28.5 -120q0 -130 -97.5 -215.5t-248.5 -85.5q-80 0 -165.5 21.5t-170.5 64.5zM197 1425h117l131 -200l217 200h131l-256 -348h-211z" />
    <glyph glyph-name="Zcaron" unicode="&#x17d;" horiz-adv-x="1386" 
d="M-35 0l924 1161h-688l37 238h1196l-920 -1155h696l-34 -244h-1211zM580 1880h117l131 -200l217 200h131l-256 -348h-211z" />
    <glyph glyph-name="zcaron" unicode="&#x17e;" horiz-adv-x="930" 
d="M-45 0v37l500 686h-398l35 225h809v-35l-481 -686h422l-33 -227h-854zM285 1425h117l131 -200l217 200h131l-256 -348h-211z" />
    <glyph glyph-name="brokenbar" unicode="&#xa6;" 
d="M410 408h206v-758h-206v758zM410 1432h206v-758h-206v758z" />
    <glyph glyph-name="Eth" unicode="&#xd0;" horiz-adv-x="1522" 
d="M395 236h254q223 0 352 121.5t129 330.5q0 223 -141 349t-393 126q-25 0 -38 -0.5t-23 -1.5l-56 -364h309l-28 -191h-309zM55 0l90 606h-155l28 191h156l90 602h166q259 0 407 -22t244 -72q177 -93 272 -254.5t95 -370.5q0 -137 -43 -255t-125 -210
q-104 -114 -253.5 -164.5t-391.5 -50.5h-580z" />
    <glyph glyph-name="eth" unicode="&#xf0;" horiz-adv-x="1083" 
d="M528 688q-92 0 -156.5 -77.5t-64.5 -190.5q0 -100 49 -157.5t133 -57.5q93 0 157.5 79.5t64.5 196.5q0 95 -49.5 151t-133.5 56zM754 788q-8 74 -22 136t-34 112l-252 -53l-28 117l237 49q-14 30 -36.5 66l-61.5 94l176 96q44 -53 81 -106t69 -109l207 41l32 -117
l-192 -39q38 -107 57 -220.5t19 -231.5q0 -313 -136.5 -478t-394.5 -165q-209 0 -333 120.5t-124 323.5q0 194 142.5 331.5t341.5 137.5q80 0 141.5 -25.5t110.5 -79.5z" />
    <glyph glyph-name="Yacute" unicode="&#xdd;" horiz-adv-x="1100" 
d="M299 0l82 588l-295 811h301l178 -527l320 527h321l-522 -819l-82 -580h-303zM661 1532h-131l221 348h213z" />
    <glyph glyph-name="yacute" unicode="&#xfd;" horiz-adv-x="897" 
d="M238 90l-295 858h278l182 -526l256 526h285l-688 -1413h-285zM494 1077h-131l221 348h213z" />
    <glyph glyph-name="Thorn" unicode="&#xde;" horiz-adv-x="1219" 
d="M412 502q18 -2 39 -3t61 -1q152 0 230.5 56t78.5 165q0 99 -76.5 152t-222.5 53q-7 0 -22.5 -1t-24.5 -1zM33 0l209 1399h301l-37 -252q14 1 30.5 1.5t49.5 0.5q259 0 399.5 -108t140.5 -306q0 -228 -146.5 -347.5t-428.5 -119.5h-174l-37 -268h-307z" />
    <glyph glyph-name="thorn" unicode="&#xfe;" horiz-adv-x="1116" 
d="M354 231q21 -4 43.5 -6t46.5 -2q140 0 219.5 89.5t79.5 244.5q0 100 -53 158.5t-143 58.5q-25 0 -54 -6t-61 -18zM-25 -465l162 1086q-65 -39 -110 -103.5t-54 -64.5q-6 0 -9 5t-3 15q0 61 55.5 150.5t145.5 162.5l90 613h270l-67 -465q44 16 88.5 24.5t87.5 8.5
q179 0 293 -112.5t114 -289.5q0 -251 -167 -414t-427 -163q-26 0 -96 6q-18 1 -29 2l-69 -461h-275z" />
    <glyph glyph-name="minus" unicode="&#x2212;" horiz-adv-x="1706" 
d="M254 713h1198v-203h-1198v203z" />
    <glyph glyph-name="multiply" unicode="&#xd7;" horiz-adv-x="1706" 
d="M416 1202l450 -450l451 450l141 -139l-450 -453l450 -450l-141 -140l-451 451l-450 -451l-140 140l451 450l-451 453z" />
    <glyph glyph-name="onesuperior" unicode="&#xb9;" horiz-adv-x="723" 
d="M195 559l137 840h192l-137 -840h-192z" />
    <glyph glyph-name="twosuperior" unicode="&#xb2;" horiz-adv-x="723" 
d="M10 559v45q185 207 286 353t101 202q0 40 -27 64t-73 24q-32 0 -79.5 -19t-108.5 -57l28 183q56 30 107.5 44.5t101.5 14.5q109 0 180.5 -64.5t71.5 -160.5q0 -78 -51 -171t-213 -288h223l-22 -170h-525z" />
    <glyph glyph-name="threesuperior" unicode="&#xb3;" horiz-adv-x="723" 
d="M14 600l25 162q56 -29 105.5 -43t93.5 -14q69 0 113 32t44 82q0 48 -43.5 74.5t-122.5 26.5q-8 0 -25.5 -1t-27.5 -1l25 159q21 -5 44 -7.5t50 -2.5q74 0 119 28t45 74q0 39 -36 62.5t-95 23.5q-38 0 -87 -12.5t-124 -42.5l26 166q54 23 109.5 34t112.5 11
q128 0 206 -61.5t78 -161.5q0 -74 -41 -124t-123 -75q59 -26 88 -70t29 -106q0 -117 -94.5 -192.5t-243.5 -75.5q-69 0 -130.5 13.5t-119.5 41.5z" />
    <glyph glyph-name="onequarter" unicode="&#xbc;" horiz-adv-x="1722" 
d="M1202 293h182l43 248zM1333 0l31 178h-303v135l436 469h148l-80 -489h94l-17 -115h-94l-28 -178h-187zM1198 1421h174l-854 -1446h-170zM186 614l131 783h185l-133 -783h-183z" />
    <glyph glyph-name="onehalf" unicode="&#xbd;" horiz-adv-x="1722" 
d="M1042 0v43q178 195 273.5 329.5t95.5 188.5q0 37 -25.5 59.5t-68.5 22.5q-30 0 -76 -18t-106 -54l28 170q51 28 100.5 42t98.5 14q104 0 172 -60.5t68 -150.5q0 -73 -50 -161t-200 -265h213l-23 -160h-500zM1198 1421h174l-854 -1446h-170zM186 614l131 783h185
l-133 -783h-183z" />
    <glyph glyph-name="threequarters" unicode="&#xbe;" horiz-adv-x="1722" 
d="M1202 293h182l43 248zM1333 0l31 178h-303v135l436 469h148l-80 -489h94l-17 -115h-94l-28 -178h-187zM1198 1421h174l-854 -1446h-170zM12 651l25 152q57 -27 103.5 -40t84.5 -13q67 0 110.5 30t43.5 76t-42 70t-120 24q-19 0 -29.5 -0.5t-19.5 -1.5l22 149
q21 -4 43 -6.5t48 -3.5q71 0 114 27t43 70q0 36 -34.5 59t-90.5 23q-34 0 -79.5 -12t-120.5 -42l24 156q53 22 105.5 32.5t105.5 10.5q122 0 197.5 -58.5t75.5 -152.5q0 -68 -40 -114.5t-118 -69.5q55 -25 82.5 -66.5t27.5 -99.5q0 -110 -89.5 -180t-231.5 -70
q-64 0 -124 13t-116 38z" />
    <glyph glyph-name="franc" unicode="&#x20a3;" horiz-adv-x="1841" 
d="M31 0l209 1399h794l-37 -244h-493l-49 -324h430l-35 -231h-430l-88 -600h-301zM1036 0l142 948h274l-18 -131q80 90 126.5 120t94.5 30q38 0 81 -16t91 -48l-133 -289q-38 41 -70 60.5t-61 19.5q-41 0 -83.5 -32.5t-84.5 -96.5l-84 -565h-275z" />
    <glyph glyph-name="Gbreve" unicode="&#x11e;" horiz-adv-x="1491" 
d="M1454 1374l-41 -264q-99 28 -189.5 41.5t-170.5 13.5q-305 0 -493.5 -150.5t-188.5 -391.5q0 -185 114.5 -283t327.5 -98q33 0 72 3t98 11l37 256h-260l33 227h563l-109 -723q-92 -20 -179.5 -30.5t-172.5 -10.5q-408 0 -623 160t-215 465q0 179 80 337t230 275
q133 105 311.5 157t402.5 52q93 0 185.5 -11.5t187.5 -35.5zM631 1852h112v-6q0 -73 35 -105.5t115 -32.5q82 0 137 35.5t86 108.5h117q-42 -145 -131 -218t-225 -73q-126 0 -187 61.5t-61 186.5q0 17 0.5 26.5t1.5 16.5z" />
    <glyph glyph-name="gbreve" unicode="&#x11f;" horiz-adv-x="1036" 
d="M362 -90q-84 -18 -131 -46.5t-47 -62.5q0 -43 53 -65.5t156 -22.5q104 0 154.5 21t50.5 63q0 36 -53.5 62t-182.5 51zM492 762q-66 0 -110 -51.5t-44 -128.5q0 -64 33.5 -103t87.5 -39q68 0 110.5 53t42.5 138q0 57 -34 94t-86 37zM217 338q-73 46 -112 114.5t-39 151.5
q0 76 36.5 145t102.5 117q63 45 157.5 63.5t333.5 18.5h334l-33 -211l-143 2q15 -42 22 -75.5t7 -61.5q0 -150 -114.5 -248t-295.5 -98q-6 0 -29.5 1t-42.5 1q-43 0 -66.5 -14t-23.5 -39q0 -40 172 -68q45 -7 72 -12q160 -29 243 -103t83 -186q0 -150 -128 -229.5
t-368 -79.5q-221 0 -343 61t-122 170q0 75 61.5 135t168.5 89q-62 37 -90.5 77.5t-28.5 87.5q0 70 50 121.5t136 69.5zM338 1397h112v-6q0 -73 35 -105.5t115 -32.5q82 0 137 35.5t86 108.5h117q-42 -145 -131 -218t-225 -73q-126 0 -187 61.5t-61 186.5q0 17 0.5 26.5
t1.5 16.5z" />
    <glyph glyph-name="Idotaccent" unicode="&#x130;" horiz-adv-x="596" 
d="M39 0l207 1399h311l-209 -1399h-309zM324 1696q0 51 39 90t90 39q54 0 92.5 -38t38.5 -91q0 -57 -37 -95t-94 -38q-53 0 -91 39t-38 94z" />
    <glyph glyph-name="Scedilla" unicode="&#x15e;" horiz-adv-x="1083" 
d="M57 365q124 -73 218 -106.5t174 -33.5q92 0 150 44.5t58 113.5q0 91 -199 215l-67 43q-131 84 -194.5 173t-63.5 187q0 181 142 300.5t360 119.5q95 0 191 -24.5t196 -75.5l-47 -252q-96 53 -178.5 79t-153.5 26q-90 0 -146.5 -40t-56.5 -102q0 -75 158 -176
q71 -45 111 -74q143 -102 195 -183t52 -185q0 -194 -132.5 -316.5t-344.5 -122.5q-121 0 -235.5 35.5t-231.5 108.5zM140 -426l43 111q67 -24 123 -35.5t100 -11.5q55 0 87 24t32 66q0 41 -36 58t-126 17h-39l67 197h91l-33 -94h8q112 0 169.5 -43.5t57.5 -126.5
q0 -102 -66 -158.5t-184 -56.5q-56 0 -126 12.5t-168 40.5z" />
    <glyph glyph-name="scedilla" unicode="&#x15f;" horiz-adv-x="754" 
d="M-29 68l31 215l10 -4q197 -74 281 -74q33 0 55.5 16.5t22.5 40.5q0 42 -86 106q-51 38 -80 64q-91 82 -122.5 135.5t-31.5 116.5q0 125 95.5 204t246.5 79q73 0 146 -20t151 -60l-16 -225q-84 41 -152 63.5t-108 22.5q-31 0 -51.5 -14t-20.5 -36q0 -43 99 -117
q51 -39 79 -63q76 -63 104.5 -115t28.5 -120q0 -130 -97.5 -215.5t-248.5 -85.5q-80 0 -165.5 21.5t-170.5 64.5zM-26 -426l43 111q67 -24 123 -35.5t100 -11.5q55 0 87 24t32 66q0 41 -36 58t-126 17h-39l67 197h91l-33 -94h8q112 0 169.5 -43.5t57.5 -126.5
q0 -102 -66 -158.5t-184 -56.5q-56 0 -126 12.5t-168 40.5z" />
    <glyph glyph-name="Cacute" unicode="&#x106;" horiz-adv-x="1403" 
d="M1165 78q-103 -51 -213.5 -77t-224.5 -26q-292 0 -475.5 182.5t-183.5 471.5q0 169 61 311t182 254q128 118 292.5 173.5t389.5 55.5q96 0 188 -12.5t179 -38.5l-39 -256q-90 22 -168.5 32.5t-148.5 10.5q-289 0 -458 -144.5t-169 -389.5q0 -179 107 -279t298 -100
q112 0 225.5 44.5t211.5 127.5zM874 1532h-131l221 348h213z" />
    <glyph glyph-name="cacute" unicode="&#x107;" horiz-adv-x="977" 
d="M797 25q-79 -22 -153.5 -32.5t-145.5 -10.5q-206 0 -337.5 124.5t-131.5 319.5q0 233 172 387t438 154q61 0 124.5 -11t129.5 -32l-35 -252q-69 20 -125 30.5t-98 10.5q-140 0 -230 -79t-90 -200q0 -103 62 -157t180 -54q62 0 131.5 19t147.5 57zM567 1077h-131l221 348
h213z" />
    <glyph glyph-name="Ccaron" unicode="&#x10c;" horiz-adv-x="1403" 
d="M1165 78q-103 -51 -213.5 -77t-224.5 -26q-292 0 -475.5 182.5t-183.5 471.5q0 169 61 311t182 254q128 118 292.5 173.5t389.5 55.5q96 0 188 -12.5t179 -38.5l-39 -256q-90 22 -168.5 32.5t-148.5 10.5q-289 0 -458 -144.5t-169 -389.5q0 -179 107 -279t298 -100
q112 0 225.5 44.5t211.5 127.5zM649 1880h117l131 -200l217 200h131l-256 -348h-211z" />
    <glyph glyph-name="ccaron" unicode="&#x10d;" horiz-adv-x="977" 
d="M797 25q-79 -22 -153.5 -32.5t-145.5 -10.5q-206 0 -337.5 124.5t-131.5 319.5q0 233 172 387t438 154q61 0 124.5 -11t129.5 -32l-35 -252q-69 20 -125 30.5t-98 10.5q-140 0 -230 -79t-90 -200q0 -103 62 -157t180 -54q62 0 131.5 19t147.5 57zM342 1425h117l131 -200
l217 200h131l-256 -348h-211z" />
    <glyph glyph-name="dcroat" unicode="&#x111;" horiz-adv-x="1098" 
d="M637 205l74 495q-26 3 -38 3.5t-24 1.5q-154 0 -247 -77t-93 -202q0 -106 75.5 -164.5t213.5 -58.5q6 0 19 1t20 1zM1071 1266h158l-25 -154h-155l-166 -1104q-78 -13 -152 -19.5t-145 -6.5q-268 0 -414.5 118.5t-146.5 331.5q0 219 166.5 364.5t424.5 145.5
q24 0 56 -1.5t73 -4.5l27 176h-287l23 154h287l20 133h277z" />
    <glyph glyph-name="sfthyphen" unicode="&#xad;" horiz-adv-x="676" 
d="M16 346l37 248h535l-37 -248h-535z" />
    <glyph glyph-name="periodcentered" unicode="&#x2219;" horiz-adv-x="547" 
d="M94 698q0 75 52 128t126 53q77 0 129 -52.5t52 -128.5q0 -74 -53 -126t-128 -52q-74 0 -126 52t-52 126z" />
    <glyph glyph-name="Euro" horiz-adv-x="1096" 
d="M1141 1372l-41 -256q-86 25 -147.5 34t-127.5 9q-119 0 -197.5 -63.5t-121.5 -196.5h491l-39 -123h-483q-8 -43 -13 -79t-7 -66h456l-41 -123h-421q5 -137 56 -202.5t152 -65.5q89 0 170.5 38t167.5 119l-41 -299q-88 -63 -182.5 -93t-210.5 -30q-195 0 -299 140.5
t-104 392.5h-160l41 123h125q3 37 7.5 73t10.5 72h-155l39 123h145q71 250 226.5 386t369.5 136q81 0 158.5 -11t175.5 -38z" />
    <glyph glyph-name="Euro" unicode="&#x20ac;" horiz-adv-x="1096" 
d="M1141 1372l-41 -256q-86 25 -147.5 34t-127.5 9q-119 0 -197.5 -63.5t-121.5 -196.5h491l-39 -123h-483q-8 -43 -13 -79t-7 -66h456l-41 -123h-421q5 -137 56 -202.5t152 -65.5q89 0 170.5 38t167.5 119l-41 -299q-88 -63 -182.5 -93t-210.5 -30q-195 0 -299 140.5
t-104 392.5h-160l41 123h125q3 37 7.5 73t10.5 72h-155l39 123h145q71 250 226.5 386t369.5 136q81 0 158.5 -11t175.5 -38z" />
    </font>
</defs>
</svg>
